<?xml version="1.0" encoding="UTF-8"?>
<!DOCTYPE svg PUBLIC "-//W3C//DTD SVG 1.1//EN" "http://www.w3.org/Graphics/SVG/1.1/DTD/svg11.dtd">
<svg xmlns="http://www.w3.org/2000/svg" version="1.1" width="2300px" height="2300px" style="shape-rendering:geometricPrecision; text-rendering:geometricPrecision; image-rendering:optimizeQuality; fill-rule:evenodd; clip-rule:evenodd" xmlns:xlink="http://www.w3.org/1999/xlink">
<g><path style="opacity:0.961" fill="#000000" d="M 1122.5,116.5 C 1139.5,116.333 1156.5,116.5 1173.5,117C 1174.89,119.045 1176.05,121.212 1177,123.5C 1177.17,155.838 1177.67,188.172 1178.5,220.5C 1456.9,360.698 1735.23,500.864 2013.5,641C 2044.9,656.784 2076.07,672.951 2107,689.5C 2107.67,708.167 2107.67,726.833 2107,745.5C 2080.18,988.595 2013.68,1220.1 1907.5,1440C 1912.89,1444.39 1918.56,1448.39 1924.5,1452C 1938.08,1459.37 1951.58,1466.87 1965,1474.5C 1965.67,1491.5 1965.67,1508.5 1965,1525.5C 1929.27,1544.58 1891.1,1553.08 1850.5,1551C 1837.22,1572.9 1824.22,1594.9 1811.5,1617C 1832.33,1675.43 1839.83,1735.59 1834,1797.5C 1832.38,1827.99 1825.71,1857.32 1814,1885.5C 1796.61,1924.17 1774.45,1959.67 1747.5,1992C 1730.26,1992.82 1713.09,1992.66 1696,1991.5C 1694.58,1972.53 1693.41,1953.53 1692.5,1934.5C 1645.13,1935.68 1597.79,1935.35 1550.5,1933.5C 1439.79,2035.57 1315.46,2117.74 1177.5,2180C 1159.59,2180.83 1141.76,2180.66 1124,2179.5C 1123.5,2145.83 1123.33,2112.17 1123.5,2078.5C 1035.41,2039.97 952.744,1992.47 875.5,1936C 866.267,1934.72 856.934,1934.05 847.5,1934C 837.445,1919.38 827.278,1904.88 817,1890.5C 800.484,1878.17 784.651,1864.83 769.5,1850.5C 768.829,1878.4 768.163,1906.23 767.5,1934C 714.263,1934.83 661.096,1934.66 608,1933.5C 607.333,1907.83 607.333,1882.17 608,1856.5C 612.509,1838.13 617.176,1819.8 622,1801.5C 622.667,1767.5 622.667,1733.5 622,1699.5C 581.913,1651.98 544.747,1602.32 510.5,1550.5C 500.517,1549.67 490.517,1549.17 480.5,1549C 468.691,1530.88 458.857,1511.72 451,1491.5C 446.605,1475.14 444.272,1458.47 444,1441.5C 403.202,1369.57 367.535,1295.24 337,1218.5C 296.327,1117.48 262.661,1014.15 236,908.5C 218.568,833.022 204.901,757.022 195,680.5C 191.652,648.584 190.652,616.584 192,584.5C 243.089,558.372 294.255,532.372 345.5,506.5C 362.998,451.528 395.998,408.695 444.5,378C 461.321,368.253 479.321,361.92 498.5,359C 524.5,358.333 550.5,358.333 576.5,359C 589.44,360.651 601.773,364.318 613.5,370C 614.833,370.667 616.167,370.667 617.5,370C 762.78,296.861 907.78,223.527 1052.5,150C 1070.5,141 1088.5,132 1106.5,123C 1112.45,122.187 1117.78,120.02 1122.5,116.5 Z"/></g>
<g><path style="opacity:1" fill="#bbbaba" d="M 1162.5,135.5 C 1163.16,167.931 1163.83,200.264 1164.5,232.5C 1474.32,388.661 1784.16,544.995 2094,701.5C 2094.89,719.224 2094.23,736.891 2092,754.5C 2062.4,996.585 1993.9,1226.92 1886.5,1445.5C 1893.05,1451.54 1900.05,1457.04 1907.5,1462C 1922.01,1470.42 1936.67,1478.59 1951.5,1486.5C 1952.67,1495.48 1952.83,1504.48 1952,1513.5C 1927.18,1525.77 1901.01,1533.61 1873.5,1537C 1861.49,1537.17 1849.49,1537.67 1837.5,1538.5C 1822.62,1563.77 1807.62,1588.93 1792.5,1614C 1821.61,1683.56 1829.11,1755.39 1815,1829.5C 1807.01,1861.8 1794.35,1892.14 1777,1920.5C 1764.33,1940.83 1750.5,1960.33 1735.5,1979C 1726.51,1979.5 1717.51,1979.67 1708.5,1979.5C 1707.45,1943.05 1704.78,1906.71 1700.5,1870.5C 1700.22,1866.81 1699.72,1863.15 1699,1859.5C 1698.62,1858.94 1698.12,1858.61 1697.5,1858.5C 1694.59,1840.87 1690.43,1823.54 1685,1806.5C 1684.33,1808.5 1684.33,1810.5 1685,1812.5C 1689.15,1827.77 1692.98,1843.1 1696.5,1858.5C 1696.68,1861.22 1697.18,1863.88 1698,1866.5C 1698.5,1884.5 1698.67,1902.5 1698.5,1920.5C 1685.66,1920.17 1672.99,1920.5 1660.5,1921.5C 1648.83,1922.83 1637.17,1922.83 1625.5,1921.5C 1604.63,1920.81 1583.63,1920.14 1562.5,1919.5C 1559.55,1915.05 1556.05,1911.05 1552,1907.5C 1438.09,2015.58 1309.26,2101.91 1165.5,2166.5C 1156.17,2166.5 1146.83,2166.5 1137.5,2166.5C 1137.83,2132.66 1137.5,2099 1136.5,2065.5C 1133.35,2065.26 1130.35,2064.43 1127.5,2063C 1061.91,2032.71 998.906,1998.04 938.5,1959C 921.4,1947.27 904.4,1935.27 887.5,1923C 878.267,1921.72 868.934,1921.05 859.5,1921C 850.025,1906.54 840.192,1892.37 830,1878.5C 804.766,1858.11 780.266,1836.77 756.5,1814.5C 756.44,1813.96 756.107,1813.62 755.5,1813.5C 754.5,1849.16 754.167,1884.83 754.5,1920.5C 710.167,1920.5 665.833,1920.5 621.5,1920.5C 621.5,1903.17 621.5,1885.83 621.5,1868.5C 625.524,1850.07 630.024,1831.74 635,1813.5C 635.833,1771.16 635.667,1728.83 634.5,1686.5C 593.838,1638.83 556.338,1588.83 522,1536.5C 521.517,1535.55 521.351,1534.55 521.5,1533.5C 521.44,1532.96 521.107,1532.62 520.5,1532.5C 519.614,1533.32 519.281,1534.32 519.5,1535.5C 510.5,1535.5 501.5,1535.5 492.5,1535.5C 482.997,1520.5 474.497,1504.84 467,1488.5C 460.414,1469.4 457.081,1449.73 457,1429.5C 416.218,1357.6 380.551,1283.27 350,1206.5C 309.327,1105.48 275.661,1002.15 249,896.5C 239.286,856.428 230.786,816.095 223.5,775.5C 216.244,729.545 210.077,683.545 205,637.5C 204.333,623.833 204.333,610.167 205,596.5C 256.236,570.799 307.402,544.966 358.5,519C 375.435,464.092 408.102,421.425 456.5,391C 490.204,372.324 526.204,365.991 564.5,372C 581.722,374.296 597.722,379.962 612.5,389C 613.833,389.667 615.167,389.667 616.5,389C 784.242,305.129 951.575,220.796 1118.5,136C 1124.23,135.138 1129.56,133.138 1134.5,130C 1143.5,129.333 1152.5,129.333 1161.5,130C 1162.41,131.699 1162.74,133.533 1162.5,135.5 Z"/></g>
<g><path style="opacity:1" fill="#8c8c8c" d="M 1162.5,135.5 C 1164.49,167.483 1165.16,199.816 1164.5,232.5C 1163.83,200.264 1163.16,167.931 1162.5,135.5 Z"/></g>
<g><path style="opacity:1" fill="#f8f8f8" d="M 1149.5,148.5 C 1145.17,148.5 1140.83,148.5 1136.5,148.5C 1139.63,147.099 1142.63,145.266 1145.5,143C 1146.79,142.51 1148.13,142.343 1149.5,142.5C 1149.5,144.5 1149.5,146.5 1149.5,148.5 Z"/></g>
<g><path style="opacity:1" fill="#000000" d="M 1136.5,148.5 C 1140.83,148.5 1145.17,148.5 1149.5,148.5C 1150.83,164.152 1151.5,180.152 1151.5,196.5C 1151.49,212.906 1151.16,229.239 1150.5,245.5C 1149.66,245.842 1149.33,246.508 1149.5,247.5C 1148.83,278.336 1148.17,309.336 1147.5,340.5C 1126.17,351.999 1104.5,362.666 1082.5,372.5C 1050.99,367.762 1019.32,366.262 987.5,368C 991.953,363.279 996.953,359.279 1002.5,356C 1017.26,350.086 1031.92,343.92 1046.5,337.5C 1047.39,336.675 1047.72,335.675 1047.5,334.5C 1022.85,333.08 998.184,332.08 973.5,331.5C 963.839,330.834 954.006,330.5 944,330.5C 928.639,330.346 913.472,331.013 898.5,332.5C 855.684,334.204 815.018,344.371 776.5,363C 743.619,380.713 716.953,405.213 696.5,436.5C 670.426,424.032 643.092,415.365 614.5,410.5C 769.595,332.62 924.262,254.287 1078.5,175.5C 1096.17,166.667 1113.83,157.833 1131.5,149C 1133.13,148.506 1134.8,148.34 1136.5,148.5 Z"/></g>
<g><path style="opacity:1" fill="#000000" d="M 1152.5,246.5 C 1461.04,402.706 1770.04,558.373 2079.5,713.5C 2079.71,717.986 2079.71,722.653 2079.5,727.5C 2078.05,736.977 2077.05,746.644 2076.5,756.5C 2075.32,763.097 2074.66,769.763 2074.5,776.5C 2072.89,785.324 2071.55,794.324 2070.5,803.5C 2069.79,806.786 2069.46,810.119 2069.5,813.5C 2068.88,813.611 2068.38,813.944 2068,814.5C 2067.17,819.137 2066.67,823.804 2066.5,828.5C 2064.75,835.631 2063.42,842.965 2062.5,850.5C 2060.04,865.237 2057.38,879.904 2054.5,894.5C 2052.34,902.277 2050.68,910.277 2049.5,918.5C 2043.02,946.391 2036.85,974.391 2031,1002.5C 2025.45,1019.88 2020.79,1037.55 2017,1055.5C 2009.25,1083.67 2000.91,1111.67 1992,1139.5C 1986.52,1152.26 1982.02,1165.43 1978.5,1179C 1973.64,1190.75 1969.31,1202.58 1965.5,1214.5C 1963.27,1218.52 1961.6,1222.86 1960.5,1227.5C 1958.3,1233.42 1956.3,1239.42 1954.5,1245.5C 1951.22,1250.65 1948.89,1256.32 1947.5,1262.5C 1922.57,1325.69 1894.91,1387.69 1864.5,1448.5C 1844.95,1429.11 1830.12,1406.45 1820,1380.5C 1808.55,1351.38 1800.22,1321.38 1795,1290.5C 1789.56,1256.58 1784.73,1222.58 1780.5,1188.5C 1782.9,1180.05 1785.57,1171.71 1788.5,1163.5C 1790.92,1159.94 1792.59,1155.94 1793.5,1151.5C 1796.17,1143.17 1798.83,1134.83 1801.5,1126.5C 1804.12,1122.66 1805.79,1118.32 1806.5,1113.5C 1809.28,1106.07 1811.61,1098.4 1813.5,1090.5C 1814.12,1090.39 1814.62,1090.06 1815,1089.5C 1817.33,1081.86 1819.49,1074.19 1821.5,1066.5C 1824.51,1056.41 1827.51,1046.41 1830.5,1036.5C 1832.2,1032.05 1833.53,1027.38 1834.5,1022.5C 1836.47,1016.6 1838.14,1010.6 1839.5,1004.5C 1842.2,996.729 1844.53,988.729 1846.5,980.5C 1848.66,971.535 1850.66,962.535 1852.5,953.5C 1853.12,953.389 1853.62,953.056 1854,952.5C 1855.62,946.239 1856.79,939.905 1857.5,933.5C 1859.33,928.741 1860.66,923.741 1861.5,918.5C 1863.04,910.685 1864.71,903.018 1866.5,895.5C 1868.73,886.009 1870.73,876.342 1872.5,866.5C 1875.05,853.229 1877.38,839.896 1879.5,826.5C 1880.12,826.389 1880.62,826.056 1881,825.5C 1881.48,821.469 1882.15,817.469 1883,813.5C 1883.8,810.961 1883.63,808.628 1882.5,806.5C 1838.31,783.736 1793.64,761.403 1748.5,739.5C 1746.42,737.127 1743.75,735.794 1740.5,735.5C 1734.81,731.99 1728.81,728.99 1722.5,726.5C 1720.42,724.127 1717.75,722.794 1714.5,722.5C 1708.75,719.13 1702.75,716.13 1696.5,713.5C 1695.09,711.461 1693.09,710.461 1690.5,710.5C 1684.6,706.718 1678.27,703.718 1671.5,701.5C 1670.02,698.917 1667.68,697.584 1664.5,697.5C 1657.34,693.45 1650.01,689.783 1642.5,686.5C 1637.51,683.339 1632.18,680.672 1626.5,678.5C 1624.63,677.737 1622.96,676.737 1621.5,675.5C 1614.69,671.928 1607.69,668.594 1600.5,665.5C 1597.09,663.819 1593.76,662.153 1590.5,660.5C 1586.84,658.006 1582.84,656.006 1578.5,654.5C 1549.93,640.215 1521.26,625.882 1492.5,611.5C 1471.41,592.237 1448.74,575.071 1424.5,560C 1395.16,542.498 1364.83,526.831 1333.5,513C 1304.86,500.836 1275.86,489.336 1246.5,478.5C 1247.69,477.481 1248.69,476.314 1249.5,475C 1258.26,471.252 1265.59,465.585 1271.5,458C 1275.76,455.413 1279.76,452.413 1283.5,449C 1297.08,435.257 1310.08,421.091 1322.5,406.5C 1321.67,406.167 1320.83,405.833 1320,405.5C 1304.23,408.379 1288.39,410.879 1272.5,413C 1253.83,414.208 1235.49,412.208 1217.5,407C 1195.09,400.648 1172.75,394.148 1150.5,387.5C 1149.84,340.155 1150.5,293.155 1152.5,246.5 Z"/></g>
<g><path style="opacity:1" fill="#2e2d2d" d="M 1150.5,245.5 C 1151.49,245.328 1152.16,245.662 1152.5,246.5C 1150.5,293.155 1149.84,340.155 1150.5,387.5C 1149.17,388.833 1147.83,388.833 1146.5,387.5C 1147.5,387.5 1148.5,387.5 1149.5,387.5C 1149.5,340.833 1149.5,294.167 1149.5,247.5C 1149.33,246.508 1149.66,245.842 1150.5,245.5 Z"/></g>
<g><path style="opacity:1" fill="#4a3433" d="M 973.5,331.5 C 948.491,331.362 923.491,331.696 898.5,332.5C 913.472,331.013 928.639,330.346 944,330.5C 954.006,330.5 963.839,330.834 973.5,331.5 Z"/></g>
<g><path style="opacity:1" fill="#2b0603" d="M 973.5,331.5 C 998.184,332.08 1022.85,333.08 1047.5,334.5C 1047.72,335.675 1047.39,336.675 1046.5,337.5C 1031.92,343.92 1017.26,350.086 1002.5,356C 996.953,359.279 991.953,363.279 987.5,368C 1019.32,366.262 1050.99,367.762 1082.5,372.5C 1103.7,377.464 1125.03,382.464 1146.5,387.5C 1147.83,388.833 1149.17,388.833 1150.5,387.5C 1172.75,394.148 1195.09,400.648 1217.5,407C 1235.49,412.208 1253.83,414.208 1272.5,413C 1288.39,410.879 1304.23,408.379 1320,405.5C 1320.83,405.833 1321.67,406.167 1322.5,406.5C 1310.08,421.091 1297.08,435.257 1283.5,449C 1279.76,452.413 1275.76,455.413 1271.5,458C 1265.59,465.585 1258.26,471.252 1249.5,475C 1248.69,476.314 1247.69,477.481 1246.5,478.5C 1275.86,489.336 1304.86,500.836 1333.5,513C 1364.83,526.831 1395.16,542.498 1424.5,560C 1448.74,575.071 1471.41,592.237 1492.5,611.5C 1496.1,616.636 1500.6,621.636 1506,626.5C 1534.74,661.303 1556.74,699.969 1572,742.5C 1577.9,757.866 1583.23,773.533 1588,789.5C 1615.7,808.85 1641.37,830.85 1665,855.5C 1700.31,896.439 1725.97,942.772 1742,994.5C 1750.75,1025.19 1758.42,1056.19 1765,1087.5C 1769.88,1120.11 1774.55,1152.78 1779,1185.5C 1779.23,1186.74 1779.73,1187.74 1780.5,1188.5C 1784.73,1222.58 1789.56,1256.58 1795,1290.5C 1800.22,1321.38 1808.55,1351.38 1820,1380.5C 1830.12,1406.45 1844.95,1429.11 1864.5,1448.5C 1865.44,1451.96 1867.44,1454.79 1870.5,1457C 1875.98,1461.91 1881.65,1466.57 1887.5,1471C 1904.11,1481.43 1921.11,1491.27 1938.5,1500.5C 1916.02,1510.44 1892.69,1517.77 1868.5,1522.5C 1854.86,1523.39 1841.19,1523.72 1827.5,1523.5C 1825.8,1523.53 1824.47,1524.19 1823.5,1525.5C 1783.17,1517.67 1747.5,1500.17 1716.5,1473C 1708,1465.83 1700.17,1458 1693,1449.5C 1696.39,1458.29 1700.39,1466.96 1705,1475.5C 1728.95,1519.4 1751.78,1563.73 1773.5,1608.5C 1772.42,1610.82 1772.58,1613.16 1774,1615.5C 1790.58,1653.14 1801.58,1692.48 1807,1733.5C 1811.31,1795.91 1796.98,1853.57 1764,1906.5C 1751.16,1927 1737.16,1946.67 1722,1965.5C 1722.53,1907.04 1714.86,1849.7 1699,1793.5C 1693.58,1776.07 1687.08,1759.07 1679.5,1742.5C 1679.04,1741.7 1678.38,1741.37 1677.5,1741.5C 1676.45,1736.91 1674.61,1732.58 1672,1728.5C 1671.5,1669.83 1671.33,1611.17 1671.5,1552.5C 1678.51,1573.01 1687.01,1593.01 1697,1612.5C 1716,1642.17 1735,1671.83 1754,1701.5C 1761.47,1714.77 1768.13,1728.43 1774,1742.5C 1771.73,1709.4 1764.39,1677.4 1752,1646.5C 1734.74,1604.97 1715.07,1564.64 1693,1525.5C 1674.31,1491.12 1658.64,1455.46 1646,1418.5C 1643.2,1409.62 1640.86,1400.62 1639,1391.5C 1632.33,1356.47 1629.33,1321.13 1630,1285.5C 1630.57,1281.15 1631.24,1276.82 1632,1272.5C 1637.2,1316.61 1658.7,1349.94 1696.5,1372.5C 1696.83,1372.17 1697.17,1371.83 1697.5,1371.5C 1685.37,1347.65 1678.87,1322.32 1678,1295.5C 1677.67,1270.5 1677.33,1245.5 1677,1220.5C 1675.56,1199.38 1669.73,1180.05 1659.5,1162.5C 1673.52,1173.52 1683.35,1187.52 1689,1204.5C 1691.31,1211.07 1693.31,1217.74 1695,1224.5C 1700.72,1262.5 1708.05,1300.16 1717,1337.5C 1735.83,1411.35 1780.66,1462.18 1851.5,1490C 1853.58,1490.81 1855.58,1490.64 1857.5,1489.5C 1817.74,1453.69 1790.9,1409.69 1777,1357.5C 1769.8,1331.5 1764.13,1305.17 1760,1278.5C 1753.48,1221.67 1745.81,1165 1737,1108.5C 1729.85,1064.24 1718.19,1021.24 1702,979.5C 1675.87,913.029 1633.03,860.196 1573.5,821C 1515.57,784.041 1453.57,755.707 1387.5,736C 1398.83,735.5 1410.16,735.333 1421.5,735.5C 1463.91,738.684 1504.24,749.518 1542.5,768C 1543.79,768.49 1545.13,768.657 1546.5,768.5C 1524.98,694.17 1481.65,636.337 1416.5,595C 1354.79,558.967 1290.45,529.3 1223.5,506C 1207.23,500.465 1190.9,495.132 1174.5,490C 1135.1,479.766 1095.1,473.433 1054.5,471C 1094.96,459.748 1135.96,457.415 1177.5,464C 1198.11,465.297 1216.44,459.463 1232.5,446.5C 1204.25,438.517 1175.92,430.35 1147.5,422C 1066.92,401.91 986.25,401.576 905.5,421C 887.391,426.374 869.391,431.707 851.5,437C 871.418,419.371 893.084,404.204 916.5,391.5C 921.019,382.327 926.686,373.994 933.5,366.5C 934.043,366.44 934.376,366.107 934.5,365.5C 927.01,364.181 919.677,364.181 912.5,365.5C 862.371,365.112 816.038,377.946 773.5,404C 754.291,417.542 738.124,434.042 725,453.5C 723.991,455.025 723.491,456.692 723.5,458.5C 735.868,447.674 749.534,438.507 764.5,431C 779.111,425.411 794.111,422.411 809.5,422C 777.113,427.771 752.28,444.604 735,472.5C 734.333,479.833 734.333,487.167 735,494.5C 736.011,507.903 738.011,521.236 741,534.5C 741.79,523.431 743.123,512.431 745,501.5C 748,492.5 751,483.5 754,474.5C 756.493,468.843 759.493,463.51 763,458.5C 761.291,470.051 760.125,481.718 759.5,493.5C 759.371,498.949 760.038,504.282 761.5,509.5C 782.644,476.379 812.644,456.379 851.5,449.5C 852.791,449.263 853.791,449.596 854.5,450.5C 829.562,461.927 810.062,479.594 796,503.5C 794.41,505.65 793.743,507.983 794,510.5C 807.808,493.355 824.974,480.855 845.5,473C 882.786,460.338 921.12,456.005 960.5,460C 922.633,463.843 891.8,480.343 868,509.5C 867.626,510.416 867.126,511.25 866.5,512C 866.833,512.167 867.167,512.333 867.5,512.5C 886.328,495.418 908.328,485.418 933.5,482.5C 936.059,482.198 938.393,482.532 940.5,483.5C 918.251,491.539 899.084,504.205 883,521.5C 881.277,523.717 879.777,526.05 878.5,528.5C 876.53,530.647 874.697,532.98 873,535.5C 872.312,536.332 872.479,536.998 873.5,537.5C 875.827,534.839 878.16,532.172 880.5,529.5C 897.632,510.224 918.966,498.391 944.5,494C 952.5,493.333 960.5,493.333 968.5,494C 952.863,498.455 941.03,506.955 933,519.5C 959.778,508.272 987.278,500.105 1015.5,495C 1041.28,492.537 1065.62,497.203 1088.5,509C 1078.5,509.553 1068.5,510.053 1058.5,510.5C 1058.33,511.822 1058.66,512.989 1059.5,514C 1080.37,521.201 1098.37,532.868 1113.5,549C 1106.1,546.566 1098.44,544.566 1090.5,543C 1084.84,542.501 1079.18,542.334 1073.5,542.5C 1088.24,586.074 1117.24,616.241 1160.5,633C 1166.76,635.474 1173.09,637.641 1179.5,639.5C 1169.01,640.494 1158.35,640.828 1147.5,640.5C 1140.66,639.284 1133.66,638.451 1126.5,638C 1116.93,635.192 1107.27,632.858 1097.5,631C 1082.28,648.75 1063.61,660.583 1041.5,666.5C 1052.97,656.866 1062.81,645.866 1071,633.5C 1072.42,629.085 1073.92,624.751 1075.5,620.5C 1074.68,616.837 1072.51,614.17 1069,612.5C 1048.4,649.385 1016.9,665.552 974.5,661C 940.473,652.97 917.473,632.47 905.5,599.5C 901.555,598.509 897.555,598.176 893.5,598.5C 896.015,608.201 900.182,617.201 906,625.5C 915.838,636.848 927.005,646.515 939.5,654.5C 907.164,647.036 882.497,627.702 865.5,596.5C 865.631,595.624 865.298,594.957 864.5,594.5C 863.194,597.98 863.194,601.313 864.5,604.5C 866.57,619.138 873.237,631.304 884.5,641C 884,641.167 883.5,641.333 883,641.5C 868.262,632.392 858.595,619.392 854,602.5C 850.023,586.421 848.023,570.088 848,553.5C 839.611,570.986 837.277,589.319 841,608.5C 842.785,616.183 845.119,623.516 848,630.5C 818.724,598.556 815.724,564.222 839,527.5C 842.513,521.809 846.513,516.476 851,511.5C 851.688,510.668 851.521,510.002 850.5,509.5C 832.936,520.563 820.769,535.896 814,555.5C 811.533,562.37 809.533,569.37 808,576.5C 804.376,551.702 811.043,530.035 828,511.5C 838.478,501.353 850.312,493.186 863.5,487C 857.918,487.078 852.584,488.411 847.5,491C 812.433,509.257 789.267,537.424 778,575.5C 774.894,585.63 773.894,595.963 775,606.5C 779.719,611.722 784.885,616.388 790.5,620.5C 791.724,618.102 791.558,615.769 790,613.5C 789.333,605.833 789.333,598.167 790,590.5C 803.895,627.721 830.062,651.887 868.5,663C 886.551,668.962 904.884,673.796 923.5,677.5C 921.5,678.167 919.5,678.833 917.5,679.5C 910.468,679.17 903.468,679.503 896.5,680.5C 900.592,685.489 905.925,688.322 912.5,689C 929.873,691.039 947.206,690.705 964.5,688C 977.352,684.896 990.352,682.563 1003.5,681C 989.423,693.032 973.09,700.199 954.5,702.5C 954.709,703.086 955.043,703.586 955.5,704C 978.628,706.077 1001.29,703.743 1023.5,697C 1034.42,693.579 1045.42,690.579 1056.5,688C 1041.39,699.778 1025.72,710.778 1009.5,721C 1028.57,720.919 1046.9,717.253 1064.5,710C 1079.91,702.968 1094.58,694.968 1108.5,686C 1095.08,712.914 1074.08,731.08 1045.5,740.5C 1076.17,744.676 1106.84,744.176 1137.5,739C 1148.39,736.968 1159.05,734.301 1169.5,731C 1171.17,730.333 1172.83,730.333 1174.5,731C 1142.7,759.385 1105.37,774.885 1062.5,777.5C 1053.49,777.334 1044.49,777.5 1035.5,778C 1036.56,779.188 1037.9,779.688 1039.5,779.5C 1062.92,786.772 1086.58,793.272 1110.5,799C 1152.63,805.104 1192.63,798.771 1230.5,780C 1231.5,779.333 1232.5,779.333 1233.5,780C 1213.24,798.293 1189.58,809.96 1162.5,815C 1147.13,817.93 1131.63,819.764 1116,820.5C 1098.07,820.094 1080.23,818.928 1062.5,817C 1082.43,833.631 1105.1,844.965 1130.5,851C 1117.11,854.364 1103.94,853.864 1091,849.5C 1090.5,849.833 1090,850.167 1089.5,850.5C 1098.48,861.16 1109.81,867.993 1123.5,871C 1139.45,872.864 1155.45,874.198 1171.5,875C 1205.53,880.01 1234.19,895.01 1257.5,920C 1245.26,915.842 1232.92,911.509 1220.5,907C 1200.5,901.743 1180.17,900.077 1159.5,902C 1150.79,903.406 1142.45,905.906 1134.5,909.5C 1135.32,910.386 1136.32,910.719 1137.5,910.5C 1145.66,911.473 1153.99,912.14 1162.5,912.5C 1195.15,916.66 1225.15,927.827 1252.5,946C 1259.3,950.969 1265.64,956.469 1271.5,962.5C 1270.33,962.833 1269.17,963.167 1268,963.5C 1220.61,959.485 1173.44,961.318 1126.5,969C 1110.7,971.76 1095.04,974.76 1079.5,978C 1108.21,960.428 1139.21,948.762 1172.5,943C 1126.69,932.858 1080.36,930.191 1033.5,935C 1019.93,936.748 1006.59,939.581 993.5,943.5C 992.406,942.132 992.74,940.965 994.5,940C 1015.06,922.388 1038.39,910.055 1064.5,903C 1079.48,899.948 1094.48,897.115 1109.5,894.5C 1109.29,893.914 1108.96,893.414 1108.5,893C 1078.07,884.684 1048.07,886.018 1018.5,897C 990.336,908.746 963.669,923.079 938.5,940C 929.004,944.876 919.337,949.043 909.5,952.5C 923.268,961.025 938.268,964.692 954.5,963.5C 962.206,963.52 969.873,963.02 977.5,962C 993.787,958.514 1010.12,954.847 1026.5,951C 1047.92,947.603 1069.25,948.103 1090.5,952.5C 1086.21,953.743 1081.88,954.743 1077.5,955.5C 1063.6,956.808 1050.27,960.308 1037.5,966C 1014.15,978.008 991.145,990.508 968.5,1003.5C 999.258,1015.04 1029.92,1026.88 1060.5,1039C 1079.41,1047.79 1098.08,1057.12 1116.5,1067C 1087.04,1060.03 1057.37,1053.36 1027.5,1047C 1007.95,1043.3 988.283,1040.46 968.5,1038.5C 963.363,1037.17 958.03,1036.67 952.5,1037C 954.158,1038.66 956.158,1039.5 958.5,1039.5C 978.619,1050.43 996.952,1063.93 1013.5,1080C 1037.11,1103.08 1059.11,1126.91 1079.5,1151.5C 1045.09,1122.45 1007.76,1097.61 967.5,1077C 921.986,1057.5 874.32,1050.16 824.5,1055C 814.948,1055.58 805.615,1056.75 796.5,1058.5C 792.107,1058.46 791.774,1058.96 795.5,1060C 798.146,1060.5 800.813,1060.66 803.5,1060.5C 841.864,1064.01 879.531,1071.17 916.5,1082C 926.564,1085.87 936.23,1090.53 945.5,1096C 925.311,1089.79 904.644,1085.12 883.5,1082C 863.186,1080.28 842.853,1080.12 822.5,1081.5C 839.772,1088.94 853.939,1100.27 865,1115.5C 865.591,1116.48 865.257,1117.15 864,1117.5C 830.342,1103.5 795.176,1097.34 758.5,1099C 734.648,1101.45 712.648,1108.95 692.5,1121.5C 690.91,1121.63 689.577,1122.29 688.5,1123.5C 690.981,1124.3 693.314,1123.96 695.5,1122.5C 712.867,1118.47 730.533,1116.64 748.5,1117C 722.179,1126.49 696.845,1138.16 672.5,1152C 687.722,1149.13 703.055,1146.46 718.5,1144C 750.298,1142.58 781.631,1145.91 812.5,1154C 853.93,1166.05 893.263,1183.05 930.5,1205C 944.099,1213.05 957.599,1221.21 971,1229.5C 971.5,1229.33 972,1229.17 972.5,1229C 959.396,1204.24 943.563,1181.4 925,1160.5C 914.97,1150.8 905.303,1140.8 896,1130.5C 890.567,1122.96 886.234,1114.96 883,1106.5C 901.012,1121.59 921.512,1132.09 944.5,1138C 975.647,1145.23 1006.98,1151.56 1038.5,1157C 1107.71,1171.57 1153.54,1212.07 1176,1278.5C 1143.53,1226.19 1097.03,1194.69 1036.5,1184C 1112.28,1229.27 1170.28,1291.11 1210.5,1369.5C 1212.1,1373.02 1212.76,1372.35 1212.5,1367.5C 1212.28,1363.29 1211.62,1359.29 1210.5,1355.5C 1204.05,1301.98 1186.22,1252.65 1157,1207.5C 1142.61,1185.78 1127.44,1164.61 1111.5,1144C 1118.53,1145.17 1125.53,1146.84 1132.5,1149C 1154.4,1158.11 1175.73,1168.61 1196.5,1180.5C 1197.58,1179.64 1197.75,1178.64 1197,1177.5C 1170.16,1141.32 1137.66,1111.48 1099.5,1088C 1149.35,1099.49 1195.35,1119.82 1237.5,1149C 1238.76,1149.98 1240.09,1150.32 1241.5,1150C 1214.58,1113.08 1182.91,1080.74 1146.5,1053C 1140,1049.25 1133.66,1045.25 1127.5,1041C 1110.8,1038.66 1094.13,1035.99 1077.5,1033C 1050.67,1028.33 1029,1015.17 1012.5,993.5C 1019.41,996.418 1026.75,999.251 1034.5,1002C 1040.44,1003.59 1046.44,1004.92 1052.5,1006C 1107.24,1010.68 1161.24,1019.68 1214.5,1033C 1253.83,1043.84 1290.5,1060.34 1324.5,1082.5C 1325.43,1078.73 1324.93,1075.06 1323,1071.5C 1321.07,1067.24 1318.73,1063.24 1316,1059.5C 1306.29,1049.29 1296.13,1039.63 1285.5,1030.5C 1312.34,1042.17 1333.51,1060.5 1349,1085.5C 1362.54,1106.88 1372.37,1129.54 1378.5,1153.5C 1349.63,1129.47 1318.97,1107.97 1286.5,1089C 1250.52,1069.67 1212.52,1056.34 1172.5,1049C 1270.36,1100.53 1334.86,1179.36 1366,1285.5C 1328.16,1244.65 1287,1207.81 1242.5,1175C 1232.34,1168.08 1222,1161.42 1211.5,1155C 1210.67,1154.31 1210,1154.48 1209.5,1155.5C 1243.8,1187.96 1269.97,1225.96 1288,1269.5C 1257.97,1241.89 1224.14,1219.89 1186.5,1203.5C 1186.17,1203.83 1185.83,1204.17 1185.5,1204.5C 1220.68,1258.5 1239.84,1317.83 1243,1382.5C 1243.81,1408.53 1243.31,1434.53 1241.5,1460.5C 1235.86,1459.87 1230.19,1459.53 1224.5,1459.5C 1184.45,1383.92 1133.78,1316.08 1072.5,1256C 1045.62,1231.28 1016.62,1209.45 985.5,1190.5C 984.479,1191 984.312,1191.67 985,1192.5C 993.775,1201.36 1001.11,1211.36 1007,1222.5C 1026.76,1261.11 1040.09,1301.78 1047,1344.5C 993.81,1283.7 931.644,1234.53 860.5,1197C 846.73,1190.41 832.397,1185.41 817.5,1182C 812.162,1181.27 806.828,1180.93 801.5,1181C 830.569,1195.73 854.402,1216.56 873,1243.5C 873.688,1244.33 873.521,1245 872.5,1245.5C 837.769,1222.63 801.102,1203.13 762.5,1187C 741.045,1177.98 718.712,1173.98 695.5,1175C 670.146,1177.85 647.813,1187.51 628.5,1204C 594.633,1237.33 566.799,1274.83 545,1316.5C 564.861,1304.97 581.195,1289.64 594,1270.5C 588.11,1288.62 579.776,1305.62 569,1321.5C 552.175,1341.99 536.508,1363.32 522,1385.5C 514.868,1397.57 509.701,1410.4 506.5,1424C 506.185,1427.66 507.018,1428.16 509,1425.5C 520.814,1407.68 534.147,1391.01 549,1375.5C 599.802,1325.67 655.468,1282.34 716,1245.5C 710.565,1251.95 704.565,1258.28 698,1264.5C 683.798,1280.03 671.132,1296.7 660,1314.5C 648.991,1333.52 641.658,1353.85 638,1375.5C 636.461,1399.18 634.795,1422.84 633,1446.5C 630.661,1461.68 625.827,1476.02 618.5,1489.5C 619.002,1490.52 619.668,1490.69 620.5,1490C 675.031,1438.46 709.364,1375.62 723.5,1301.5C 735.101,1317.68 738.434,1335.51 733.5,1355C 733.833,1355.83 734.167,1356.67 734.5,1357.5C 760.718,1341.78 782.218,1321.12 799,1295.5C 806.667,1281.5 814.333,1267.5 822,1253.5C 818.284,1278.31 809.617,1301.31 796,1322.5C 777.146,1349.03 757.146,1374.69 736,1399.5C 719.777,1420.27 707.444,1443.27 699,1468.5C 696.071,1478.31 694.238,1488.31 693.5,1498.5C 660.166,1502.5 626.832,1506.5 593.5,1510.5C 593.334,1519.17 593.5,1527.84 594,1536.5C 611.115,1546.98 627.615,1558.15 643.5,1570C 645.025,1571.01 646.692,1571.51 648.5,1571.5C 648.833,1597.84 648.5,1624.18 647.5,1650.5C 613.288,1615.42 591.121,1573.75 581,1525.5C 574.798,1495.48 571.631,1465.15 571.5,1434.5C 571.5,1428.83 571.5,1423.17 571.5,1417.5C 570.209,1417.26 569.209,1417.6 568.5,1418.5C 538.664,1433.66 520.664,1457.66 514.5,1490.5C 513.883,1490.61 513.383,1490.94 513,1491.5C 510.667,1502.17 508.333,1512.83 506,1523.5C 495.085,1505.67 485.752,1487 478,1467.5C 473.288,1451.17 471.121,1434.51 471.5,1417.5C 473.043,1391.7 479.21,1367.03 490,1343.5C 495.788,1329.92 502.121,1316.59 509,1303.5C 526.082,1273.34 541.582,1242.34 555.5,1210.5C 555.333,1210.17 555.167,1209.83 555,1209.5C 544.347,1215.94 532.847,1220.44 520.5,1223C 499.623,1226.15 482.457,1219.65 469,1203.5C 455.033,1182.75 448.2,1159.75 448.5,1134.5C 449.179,1102.81 457.179,1073.14 472.5,1045.5C 466.382,1041.22 460.382,1036.72 454.5,1032C 443.221,1021.05 434.721,1008.21 429,993.5C 424.408,982.15 420.241,970.65 416.5,959C 416.755,957.674 417.422,956.674 418.5,956C 429.833,952.667 441.167,949.333 452.5,946C 458.97,943.6 464.97,940.433 470.5,936.5C 477.398,931.78 483.898,926.447 490,920.5C 508.721,897.439 528.555,875.273 549.5,854C 561.436,843.033 574.436,833.533 588.5,825.5C 579.15,766.802 555.65,714.468 518,668.5C 514.902,664.893 511.402,661.893 507.5,659.5C 504.538,656.036 501.371,652.703 498,649.5C 488.773,656.001 481.94,664.335 477.5,674.5C 474.949,676.578 473.116,679.244 472,682.5C 462.556,706.55 457.39,731.55 456.5,757.5C 455.036,768.634 454.369,779.968 454.5,791.5C 454.5,795.5 454.5,799.5 454.5,803.5C 453.833,808.5 453.167,813.5 452.5,818.5C 447.852,812.219 442.519,806.552 436.5,801.5C 410.387,771.149 389.887,737.149 375,699.5C 355.713,644.163 354.546,588.496 371.5,532.5C 388.812,477.082 422.145,433.916 471.5,403C 509.753,380.717 549.087,378.717 589.5,397C 597.93,401.545 606.263,406.045 614.5,410.5C 643.092,415.365 670.426,424.032 696.5,436.5C 716.953,405.213 743.619,380.713 776.5,363C 815.018,344.371 855.684,334.204 898.5,332.5C 923.491,331.696 948.491,331.362 973.5,331.5 Z"/></g>
<g><path style="opacity:1" fill="#bab9b9" d="M 1149.5,247.5 C 1149.5,294.167 1149.5,340.833 1149.5,387.5C 1148.5,387.5 1147.5,387.5 1146.5,387.5C 1125.03,382.464 1103.7,377.464 1082.5,372.5C 1104.5,362.666 1126.17,351.999 1147.5,340.5C 1148.17,309.336 1148.83,278.336 1149.5,247.5 Z"/></g>
<g><path style="opacity:1" fill="#796d6c" d="M 912.5,365.5 C 919.677,364.181 927.01,364.181 934.5,365.5C 934.376,366.107 934.043,366.44 933.5,366.5C 926.687,365.509 919.687,365.175 912.5,365.5 Z"/></g>
<g><path style="opacity:1" fill="#dad7d7" d="M 912.5,365.5 C 919.687,365.175 926.687,365.509 933.5,366.5C 926.686,373.994 921.019,382.327 916.5,391.5C 893.084,404.204 871.418,419.371 851.5,437C 869.391,431.707 887.391,426.374 905.5,421C 986.25,401.576 1066.92,401.91 1147.5,422C 1175.92,430.35 1204.25,438.517 1232.5,446.5C 1216.44,459.463 1198.11,465.297 1177.5,464C 1135.96,457.415 1094.96,459.748 1054.5,471C 1095.1,473.433 1135.1,479.766 1174.5,490C 1190.9,495.132 1207.23,500.465 1223.5,506C 1290.45,529.3 1354.79,558.967 1416.5,595C 1481.65,636.337 1524.98,694.17 1546.5,768.5C 1545.13,768.657 1543.79,768.49 1542.5,768C 1504.24,749.518 1463.91,738.684 1421.5,735.5C 1409.68,734.505 1397.68,734.172 1385.5,734.5C 1384.86,738.401 1385.86,741.734 1388.5,744.5C 1406.17,755.333 1423.83,766.167 1441.5,777C 1440.91,777.464 1440.24,777.631 1439.5,777.5C 1398.22,770.42 1358.22,774.754 1319.5,790.5C 1319.17,789.833 1318.83,789.167 1318.5,788.5C 1320.97,781.096 1323.63,773.762 1326.5,766.5C 1326.17,766.167 1325.83,765.833 1325.5,765.5C 1276.41,800.047 1222.41,823.047 1163.5,834.5C 1165.08,835.298 1166.74,835.798 1168.5,836C 1197.88,836.895 1226.88,833.895 1255.5,827C 1269.85,823.046 1284.19,819.212 1298.5,815.5C 1298.74,819.273 1298.24,822.94 1297,826.5C 1292.46,835.089 1287.29,843.256 1281.5,851C 1292.81,843.154 1304.47,835.487 1316.5,828C 1361.56,802.372 1409.23,795.706 1459.5,808C 1445.59,809.717 1431.92,812.717 1418.5,817C 1406.88,822.461 1397.21,830.294 1389.5,840.5C 1399.99,840.392 1410.66,840.559 1421.5,841C 1443.71,842.911 1463.38,850.911 1480.5,865C 1502.97,885.448 1521.63,908.781 1536.5,935C 1525.32,928.377 1514.66,920.71 1504.5,912C 1481.59,895.248 1455.92,885.581 1427.5,883C 1416.18,882.08 1404.85,881.413 1393.5,881C 1358.5,880.667 1323.5,880.333 1288.5,880C 1273.79,879.561 1259.13,878.561 1244.5,877C 1236.67,876.1 1229,874.433 1221.5,872C 1211.58,868.193 1201.91,864.193 1192.5,860C 1210.85,878.508 1232.85,890.174 1258.5,895C 1268.11,896.991 1277.78,898.658 1287.5,900C 1324.49,901.689 1361.49,902.855 1398.5,903.5C 1420.32,912.502 1439.15,925.836 1455,943.5C 1471.56,962.939 1485.89,983.939 1498,1006.5C 1509.48,1028.62 1520.31,1051.12 1530.5,1074C 1529.9,1075.56 1529.06,1075.4 1528,1073.5C 1507.66,1043.83 1483.16,1017.99 1454.5,996C 1424.11,974.403 1390.28,961.237 1353,956.5C 1351.83,956.833 1350.67,957.167 1349.5,957.5C 1371.23,971.378 1391.06,987.712 1409,1006.5C 1422.93,1023.61 1435.1,1041.94 1445.5,1061.5C 1445,1061.83 1444.5,1062.17 1444,1062.5C 1404.28,1033.06 1360.11,1012.9 1311.5,1002C 1287.28,997.049 1262.95,996.382 1238.5,1000C 1237.94,1000.38 1237.61,1000.88 1237.5,1001.5C 1237.1,1004.04 1237.77,1006.21 1239.5,1008C 1254.98,1015.24 1270.32,1022.74 1285.5,1030.5C 1296.13,1039.63 1306.29,1049.29 1316,1059.5C 1318.73,1063.24 1321.07,1067.24 1323,1071.5C 1324.93,1075.06 1325.43,1078.73 1324.5,1082.5C 1290.5,1060.34 1253.83,1043.84 1214.5,1033C 1161.24,1019.68 1107.24,1010.68 1052.5,1006C 1046.44,1004.92 1040.44,1003.59 1034.5,1002C 1026.75,999.251 1019.41,996.418 1012.5,993.5C 1029,1015.17 1050.67,1028.33 1077.5,1033C 1094.13,1035.99 1110.8,1038.66 1127.5,1041C 1133.66,1045.25 1140,1049.25 1146.5,1053C 1182.91,1080.74 1214.58,1113.08 1241.5,1150C 1240.09,1150.32 1238.76,1149.98 1237.5,1149C 1195.35,1119.82 1149.35,1099.49 1099.5,1088C 1137.66,1111.48 1170.16,1141.32 1197,1177.5C 1197.75,1178.64 1197.58,1179.64 1196.5,1180.5C 1175.73,1168.61 1154.4,1158.11 1132.5,1149C 1125.53,1146.84 1118.53,1145.17 1111.5,1144C 1127.44,1164.61 1142.61,1185.78 1157,1207.5C 1186.22,1252.65 1204.05,1301.98 1210.5,1355.5C 1211.05,1360.35 1211.05,1365.02 1210.5,1369.5C 1170.28,1291.11 1112.28,1229.27 1036.5,1184C 1097.03,1194.69 1143.53,1226.19 1176,1278.5C 1153.54,1212.07 1107.71,1171.57 1038.5,1157C 1006.98,1151.56 975.647,1145.23 944.5,1138C 921.512,1132.09 901.012,1121.59 883,1106.5C 886.234,1114.96 890.567,1122.96 896,1130.5C 905.303,1140.8 914.97,1150.8 925,1160.5C 943.563,1181.4 959.396,1204.24 972.5,1229C 972,1229.17 971.5,1229.33 971,1229.5C 957.599,1221.21 944.099,1213.05 930.5,1205C 893.263,1183.05 853.93,1166.05 812.5,1154C 781.631,1145.91 750.298,1142.58 718.5,1144C 703.055,1146.46 687.722,1149.13 672.5,1152C 696.845,1138.16 722.179,1126.49 748.5,1117C 730.533,1116.64 712.867,1118.47 695.5,1122.5C 694.209,1122.74 693.209,1122.4 692.5,1121.5C 712.648,1108.95 734.648,1101.45 758.5,1099C 795.176,1097.34 830.342,1103.5 864,1117.5C 865.257,1117.15 865.591,1116.48 865,1115.5C 853.939,1100.27 839.772,1088.94 822.5,1081.5C 842.853,1080.12 863.186,1080.28 883.5,1082C 904.644,1085.12 925.311,1089.79 945.5,1096C 936.23,1090.53 926.564,1085.87 916.5,1082C 879.531,1071.17 841.864,1064.01 803.5,1060.5C 801.167,1059.83 798.833,1059.17 796.5,1058.5C 805.615,1056.75 814.948,1055.58 824.5,1055C 874.32,1050.16 921.986,1057.5 967.5,1077C 1007.76,1097.61 1045.09,1122.45 1079.5,1151.5C 1059.11,1126.91 1037.11,1103.08 1013.5,1080C 996.952,1063.93 978.619,1050.43 958.5,1039.5C 961.625,1038.52 964.958,1038.19 968.5,1038.5C 988.283,1040.46 1007.95,1043.3 1027.5,1047C 1057.37,1053.36 1087.04,1060.03 1116.5,1067C 1098.08,1057.12 1079.41,1047.79 1060.5,1039C 1029.92,1026.88 999.258,1015.04 968.5,1003.5C 991.145,990.508 1014.15,978.008 1037.5,966C 1050.27,960.308 1063.6,956.808 1077.5,955.5C 1083.53,955.463 1089.53,954.963 1095.5,954C 1094.1,952.731 1092.43,952.231 1090.5,952.5C 1069.25,948.103 1047.92,947.603 1026.5,951C 1010.12,954.847 993.787,958.514 977.5,962C 969.873,963.02 962.206,963.52 954.5,963.5C 938.268,964.692 923.268,961.025 909.5,952.5C 919.337,949.043 929.004,944.876 938.5,940C 963.669,923.079 990.336,908.746 1018.5,897C 1048.07,886.018 1078.07,884.684 1108.5,893C 1108.96,893.414 1109.29,893.914 1109.5,894.5C 1094.48,897.115 1079.48,899.948 1064.5,903C 1038.39,910.055 1015.06,922.388 994.5,940C 992.74,940.965 992.406,942.132 993.5,943.5C 1006.59,939.581 1019.93,936.748 1033.5,935C 1080.36,930.191 1126.69,932.858 1172.5,943C 1139.21,948.762 1108.21,960.428 1079.5,978C 1095.04,974.76 1110.7,971.76 1126.5,969C 1173.44,961.318 1220.61,959.485 1268,963.5C 1269.17,963.167 1270.33,962.833 1271.5,962.5C 1265.64,956.469 1259.3,950.969 1252.5,946C 1225.15,927.827 1195.15,916.66 1162.5,912.5C 1160.71,911.691 1158.71,911.191 1156.5,911C 1150.18,910.5 1143.84,910.334 1137.5,910.5C 1136.32,910.719 1135.32,910.386 1134.5,909.5C 1142.45,905.906 1150.79,903.406 1159.5,902C 1180.17,900.077 1200.5,901.743 1220.5,907C 1232.92,911.509 1245.26,915.842 1257.5,920C 1234.19,895.01 1205.53,880.01 1171.5,875C 1155.45,874.198 1139.45,872.864 1123.5,871C 1109.81,867.993 1098.48,861.16 1089.5,850.5C 1090,850.167 1090.5,849.833 1091,849.5C 1103.94,853.864 1117.11,854.364 1130.5,851C 1105.1,844.965 1082.43,833.631 1062.5,817C 1080.23,818.928 1098.07,820.094 1116,820.5C 1131.63,819.764 1147.13,817.93 1162.5,815C 1189.58,809.96 1213.24,798.293 1233.5,780C 1232.5,779.333 1231.5,779.333 1230.5,780C 1192.63,798.771 1152.63,805.104 1110.5,799C 1086.58,793.272 1062.92,786.772 1039.5,779.5C 1047.17,778.833 1054.83,778.167 1062.5,777.5C 1105.37,774.885 1142.7,759.385 1174.5,731C 1172.83,730.333 1171.17,730.333 1169.5,731C 1159.05,734.301 1148.39,736.968 1137.5,739C 1106.84,744.176 1076.17,744.676 1045.5,740.5C 1074.08,731.08 1095.08,712.914 1108.5,686C 1094.58,694.968 1079.91,702.968 1064.5,710C 1046.9,717.253 1028.57,720.919 1009.5,721C 1025.72,710.778 1041.39,699.778 1056.5,688C 1045.42,690.579 1034.42,693.579 1023.5,697C 1001.29,703.743 978.628,706.077 955.5,704C 955.043,703.586 954.709,703.086 954.5,702.5C 973.09,700.199 989.423,693.032 1003.5,681C 990.352,682.563 977.352,684.896 964.5,688C 947.206,690.705 929.873,691.039 912.5,689C 905.925,688.322 900.592,685.489 896.5,680.5C 903.468,679.503 910.468,679.17 917.5,679.5C 919.924,679.808 922.257,679.474 924.5,678.5C 924.376,677.893 924.043,677.56 923.5,677.5C 904.884,673.796 886.551,668.962 868.5,663C 830.062,651.887 803.895,627.721 790,590.5C 789.333,598.167 789.333,605.833 790,613.5C 791.558,615.769 791.724,618.102 790.5,620.5C 784.885,616.388 779.719,611.722 775,606.5C 773.894,595.963 774.894,585.63 778,575.5C 789.267,537.424 812.433,509.257 847.5,491C 852.584,488.411 857.918,487.078 863.5,487C 850.312,493.186 838.478,501.353 828,511.5C 811.043,530.035 804.376,551.702 808,576.5C 809.533,569.37 811.533,562.37 814,555.5C 820.769,535.896 832.936,520.563 850.5,509.5C 851.521,510.002 851.688,510.668 851,511.5C 846.513,516.476 842.513,521.809 839,527.5C 815.724,564.222 818.724,598.556 848,630.5C 845.119,623.516 842.785,616.183 841,608.5C 837.277,589.319 839.611,570.986 848,553.5C 848.023,570.088 850.023,586.421 854,602.5C 858.595,619.392 868.262,632.392 883,641.5C 883.5,641.333 884,641.167 884.5,641C 873.237,631.304 866.57,619.138 864.5,604.5C 864.194,601.615 864.527,598.948 865.5,596.5C 882.497,627.702 907.164,647.036 939.5,654.5C 927.005,646.515 915.838,636.848 906,625.5C 900.182,617.201 896.015,608.201 893.5,598.5C 897.555,598.176 901.555,598.509 905.5,599.5C 917.473,632.47 940.473,652.97 974.5,661C 1016.9,665.552 1048.4,649.385 1069,612.5C 1072.51,614.17 1074.68,616.837 1075.5,620.5C 1073.92,624.751 1072.42,629.085 1071,633.5C 1062.81,645.866 1052.97,656.866 1041.5,666.5C 1063.61,660.583 1082.28,648.75 1097.5,631C 1107.27,632.858 1116.93,635.192 1126.5,638C 1133.66,638.451 1140.66,639.284 1147.5,640.5C 1158.67,641.824 1170.01,641.824 1181.5,640.5C 1181.04,639.702 1180.38,639.369 1179.5,639.5C 1173.09,637.641 1166.76,635.474 1160.5,633C 1117.24,616.241 1088.24,586.074 1073.5,542.5C 1079.18,542.334 1084.84,542.501 1090.5,543C 1098.44,544.566 1106.1,546.566 1113.5,549C 1098.37,532.868 1080.37,521.201 1059.5,514C 1058.66,512.989 1058.33,511.822 1058.5,510.5C 1068.5,510.053 1078.5,509.553 1088.5,509C 1065.62,497.203 1041.28,492.537 1015.5,495C 987.278,500.105 959.778,508.272 933,519.5C 941.03,506.955 952.863,498.455 968.5,494C 960.5,493.333 952.5,493.333 944.5,494C 918.966,498.391 897.632,510.224 880.5,529.5C 879.508,529.672 878.842,529.338 878.5,528.5C 879.777,526.05 881.277,523.717 883,521.5C 899.084,504.205 918.251,491.539 940.5,483.5C 941.922,483.291 943.255,482.791 944.5,482C 940.642,481.19 936.976,481.357 933.5,482.5C 908.328,485.418 886.328,495.418 867.5,512.5C 867.167,512.333 866.833,512.167 866.5,512C 867.126,511.25 867.626,510.416 868,509.5C 891.8,480.343 922.633,463.843 960.5,460C 921.12,456.005 882.786,460.338 845.5,473C 824.974,480.855 807.808,493.355 794,510.5C 793.743,507.983 794.41,505.65 796,503.5C 810.062,479.594 829.562,461.927 854.5,450.5C 856.713,450.152 858.713,449.319 860.5,448C 857.28,447.68 854.28,448.18 851.5,449.5C 812.644,456.379 782.644,476.379 761.5,509.5C 760.038,504.282 759.371,498.949 759.5,493.5C 760.125,481.718 761.291,470.051 763,458.5C 759.493,463.51 756.493,468.843 754,474.5C 751,483.5 748,492.5 745,501.5C 743.123,512.431 741.79,523.431 741,534.5C 738.011,521.236 736.011,507.903 735,494.5C 734.333,487.167 734.333,479.833 735,472.5C 752.28,444.604 777.113,427.771 809.5,422C 794.111,422.411 779.111,425.411 764.5,431C 749.534,438.507 735.868,447.674 723.5,458.5C 723.491,456.692 723.991,455.025 725,453.5C 738.124,434.042 754.291,417.542 773.5,404C 816.038,377.946 862.371,365.112 912.5,365.5 Z"/></g>
<g><path style="opacity:1" fill="#bc800d" d="M 625.5,455.5 C 626.362,452.177 627.028,448.677 627.5,445C 627.684,443.624 628.351,442.791 629.5,442.5C 652.515,446.27 673.848,454.437 693.5,467C 698.95,471.049 703.95,475.549 708.5,480.5C 708.521,487.374 709.187,494.041 710.5,500.5C 710.5,501.5 710.5,502.5 710.5,503.5C 710.255,509.084 710.922,514.417 712.5,519.5C 715.244,536.466 718.911,553.133 723.5,569.5C 723.647,572.443 724.313,575.276 725.5,578C 725.43,578.765 725.097,579.265 724.5,579.5C 716.078,570.972 709.412,561.305 704.5,550.5C 704.44,549.957 704.107,549.624 703.5,549.5C 702.182,556.322 702.182,562.989 703.5,569.5C 708.753,586.651 718.42,601.151 732.5,613C 750.553,627.557 769.553,640.724 789.5,652.5C 790.392,655.292 792.392,656.625 795.5,656.5C 818.895,670.199 842.895,682.865 867.5,694.5C 891.729,708.238 914.729,723.738 936.5,741C 950.498,752.326 962.332,765.492 972,780.5C 978.501,792.122 982.668,804.456 984.5,817.5C 984.521,824.854 984.187,832.187 983.5,839.5C 982.386,844.488 981.219,849.488 980,854.5C 967.19,880.98 948.357,902.146 923.5,918C 899.127,933.185 873.793,946.185 847.5,957C 833.798,961.286 820.132,965.952 806.5,971C 793.106,974.471 779.773,977.971 766.5,981.5C 763.219,981.42 760.219,982.087 757.5,983.5C 756.022,983.238 754.689,983.571 753.5,984.5C 759.32,985.816 764.987,985.816 770.5,984.5C 776.259,984.786 781.925,984.452 787.5,983.5C 793.098,983.844 798.432,983.178 803.5,981.5C 803.833,981.5 804.167,981.5 804.5,981.5C 810.804,981.561 816.804,980.561 822.5,978.5C 838.406,975.232 854.239,971.232 870,966.5C 880.191,970.347 890.024,974.847 899.5,980C 903.242,980.903 906.909,982.07 910.5,983.5C 910.291,984.086 909.957,984.586 909.5,985C 886.751,991.064 864.084,997.231 841.5,1003.5C 789.819,1019.42 739.819,1039.59 691.5,1064C 673.329,1074.25 655.663,1085.25 638.5,1097C 610.207,1120.29 582.207,1143.96 554.5,1168C 545.103,1175.12 535.269,1181.62 525,1187.5C 515.925,1190.6 507.092,1190.1 498.5,1186C 490.023,1176.55 484.689,1165.71 482.5,1153.5C 481.237,1141.17 481.237,1128.84 482.5,1116.5C 483.201,1108.69 484.701,1101.02 487,1093.5C 491.147,1082.33 495.814,1071.33 501,1060.5C 502.586,1058.46 504.753,1057.46 507.5,1057.5C 513.175,1058.17 518.841,1058.83 524.5,1059.5C 521.023,1069.42 517.356,1079.08 513.5,1088.5C 512.076,1090.51 511.41,1092.85 511.5,1095.5C 507.508,1107.91 509.174,1119.41 516.5,1130C 521.366,1132.95 526.699,1134.12 532.5,1133.5C 541.043,1133.98 548.21,1130.98 554,1124.5C 582.551,1066.61 624.384,1020.78 679.5,987C 705.923,971.12 733.257,956.786 761.5,944C 787.5,932.333 813.5,920.667 839.5,909C 860.349,898.746 880.682,887.746 900.5,876C 911.564,868.936 921.398,860.436 930,850.5C 936.809,841.222 941.642,831.222 944.5,820.5C 945.165,817.351 945.498,814.018 945.5,810.5C 945.7,805.563 945.033,800.896 943.5,796.5C 939.646,782.794 933.146,770.46 924,759.5C 913.514,746.507 901.347,735.507 887.5,726.5C 886.024,723.501 883.691,722.001 880.5,722C 882.703,724.372 885.037,726.539 887.5,728.5C 900.166,741.684 909.833,756.851 916.5,774C 917.517,776.787 917.684,779.62 917,782.5C 833.459,717.285 744.292,660.452 649.5,612C 618.47,597.715 586.137,587.048 552.5,580C 549.854,579.503 547.187,579.336 544.5,579.5C 542.712,578.378 540.712,578.211 538.5,579C 539.244,580.039 540.244,580.539 541.5,580.5C 570.703,593.271 598.703,608.438 625.5,626C 622.964,626.186 620.631,626.686 618.5,627.5C 604.539,628.892 590.539,629.559 576.5,629.5C 559.657,627.83 543.324,623.997 527.5,618C 518.105,617.114 508.772,617.447 499.5,619C 479.072,626.419 463.905,639.919 454,659.5C 449.881,668.631 446.215,677.965 443,687.5C 442.356,693.244 440.856,698.744 438.5,704C 437.253,712.322 435.92,720.488 434.5,728.5C 433.305,735.358 432.138,742.358 431,749.5C 430.617,748.944 430.117,748.611 429.5,748.5C 416.511,727.856 405.678,706.189 397,683.5C 395.045,674.651 392.878,665.984 390.5,657.5C 386.485,631.965 385.485,606.298 387.5,580.5C 394.206,524.982 418.539,478.815 460.5,442C 486.018,419.889 515.685,409.889 549.5,412C 567.754,415.158 584.254,422.658 599,434.5C 600.067,450.446 601.067,466.446 602,482.5C 605.929,496.023 612.262,508.356 621,519.5C 633.675,532.842 647.009,545.508 661,557.5C 669.096,566.259 676.429,575.593 683,585.5C 680.986,574.484 676.986,564.151 671,554.5C 663.053,542.886 654.719,531.552 646,520.5C 636.229,507.431 629.229,493.098 625,477.5C 624.274,470.131 624.441,462.798 625.5,455.5 Z"/></g>
<g><path style="opacity:1" fill="#716161" d="M 854.5,450.5 C 853.791,449.596 852.791,449.263 851.5,449.5C 854.28,448.18 857.28,447.68 860.5,448C 858.713,449.319 856.713,450.152 854.5,450.5 Z"/></g>
<g><path style="opacity:1" fill="#7d5228" d="M 629.5,442.5 C 628.351,442.791 627.684,443.624 627.5,445C 627.028,448.677 626.362,452.177 625.5,455.5C 625.437,450.797 625.771,446.13 626.5,441.5C 627.791,441.263 628.791,441.596 629.5,442.5 Z"/></g>
<g><path style="opacity:1" fill="#2d0804" d="M 680.5,530.5 C 682.167,529.833 683.833,529.167 685.5,528.5C 686.278,527.844 686.944,527.011 687.5,526C 671.604,516.032 660.604,502.199 654.5,484.5C 653.145,485.188 652.145,486.188 651.5,487.5C 650.833,490.5 650.167,493.5 649.5,496.5C 647.539,490.724 647.039,484.724 648,478.5C 651.341,469.208 657.841,466.041 667.5,469C 683.184,476.015 694.017,487.515 700,503.5C 701.848,509.731 702.515,516.065 702,522.5C 698.621,531.567 692.121,534.734 682.5,532C 681.584,531.722 680.918,531.222 680.5,530.5 Z"/></g>
<g><path style="opacity:1" fill="#7d706f" d="M 933.5,482.5 C 936.976,481.357 940.642,481.19 944.5,482C 943.255,482.791 941.922,483.291 940.5,483.5C 938.393,482.532 936.059,482.198 933.5,482.5 Z"/></g>
<g><path style="opacity:1" fill="#7f542a" d="M 708.5,480.5 C 710.039,486.937 710.706,493.604 710.5,500.5C 709.187,494.041 708.521,487.374 708.5,480.5 Z"/></g>
<g><path style="opacity:1" fill="#7e542f" d="M 651.5,487.5 C 651.09,492.667 651.757,497.667 653.5,502.5C 653.154,503.696 652.654,503.696 652,502.5C 650.878,500.593 650.045,498.593 649.5,496.5C 650.167,493.5 650.833,490.5 651.5,487.5 Z"/></g>
<g><path style="opacity:1" fill="#7c5128" d="M 710.5,503.5 C 711.665,508.633 712.332,513.966 712.5,519.5C 710.922,514.417 710.255,509.084 710.5,503.5 Z"/></g>
<g><path style="opacity:1" fill="#673f1e" d="M 685.5,528.5 C 683.833,529.167 682.167,529.833 680.5,530.5C 677.598,530.177 675.765,528.844 675,526.5C 678.321,527.971 681.821,528.637 685.5,528.5 Z"/></g>
<g><path style="opacity:1" fill="#000000" d="M 371.5,532.5 C 354.546,588.496 355.713,644.163 375,699.5C 389.887,737.149 410.387,771.149 436.5,801.5C 446.315,846.919 457.649,891.919 470.5,936.5C 464.97,940.433 458.97,943.6 452.5,946C 441.167,949.333 429.833,952.667 418.5,956C 417.422,956.674 416.755,957.674 416.5,959C 420.241,970.65 424.408,982.15 429,993.5C 434.721,1008.21 443.221,1021.05 454.5,1032C 460.382,1036.72 466.382,1041.22 472.5,1045.5C 457.179,1073.14 449.179,1102.81 448.5,1134.5C 448.2,1159.75 455.033,1182.75 469,1203.5C 482.457,1219.65 499.623,1226.15 520.5,1223C 532.847,1220.44 544.347,1215.94 555,1209.5C 555.167,1209.83 555.333,1210.17 555.5,1210.5C 541.582,1242.34 526.082,1273.34 509,1303.5C 502.121,1316.59 495.788,1329.92 490,1343.5C 479.21,1367.03 473.043,1391.7 471.5,1417.5C 470.017,1415.91 468.517,1414.24 467,1412.5C 353.606,1203.66 275.939,981.998 234,747.5C 229.656,716.737 225.323,686.07 221,655.5C 219.602,642.687 218.435,629.854 217.5,617C 217.525,614.245 217.859,611.578 218.5,609C 269.544,583.478 320.544,557.978 371.5,532.5 Z"/></g>
<g><path style="opacity:1" fill="#9a9190" d="M 878.5,528.5 C 878.842,529.338 879.508,529.672 880.5,529.5C 878.16,532.172 875.827,534.839 873.5,537.5C 872.479,536.998 872.312,536.332 873,535.5C 874.697,532.98 876.53,530.647 878.5,528.5 Z"/></g>
<g><path style="opacity:1" fill="#2b0704" d="M 1263.5,703.5 C 1262.96,703.56 1262.62,703.893 1262.5,704.5C 1265.09,705.48 1267.75,705.813 1270.5,705.5C 1293.7,708.425 1315.36,715.925 1335.5,728C 1344.2,733.013 1352.54,738.513 1360.5,744.5C 1359.08,745.451 1357.41,745.784 1355.5,745.5C 1324.4,741.603 1294.07,744.77 1264.5,755C 1249.42,760.804 1234.42,766.804 1219.5,773C 1210.88,775.489 1202.21,777.655 1193.5,779.5C 1186.01,780.655 1178.68,780.655 1171.5,779.5C 1178.52,777.158 1185.52,774.658 1192.5,772C 1211.02,762.13 1229.02,751.463 1246.5,740C 1255.1,736.191 1263.76,732.691 1272.5,729.5C 1261.49,725.596 1250.16,722.763 1238.5,721C 1224.5,718.596 1210.5,716.429 1196.5,714.5C 1212.29,703.779 1229.62,696.612 1248.5,693C 1249.83,692 1249.83,691 1248.5,690C 1219.6,683.586 1190.26,679.586 1160.5,678C 1151.03,676.497 1141.7,674.164 1132.5,671C 1129.64,670.07 1127.31,668.403 1125.5,666C 1171.1,672.473 1215.77,668.806 1259.5,655C 1270.12,650.86 1280.45,645.86 1290.5,640C 1289.83,639.333 1289.17,638.667 1288.5,638C 1252.77,633.209 1219.11,622.542 1187.5,606C 1162.19,590.688 1143.19,569.688 1130.5,543C 1187.3,589.555 1252.97,612.722 1327.5,612.5C 1341.56,612.662 1355.56,611.828 1369.5,610C 1382.77,607.011 1396.11,604.678 1409.5,603C 1369.17,639.668 1322.17,664.001 1268.5,676C 1267.17,677 1267.17,678 1268.5,679C 1281.22,682.867 1293.22,688.034 1304.5,694.5C 1290.56,696.354 1276.9,699.354 1263.5,703.5 Z"/></g>
<g><path style="opacity:1" fill="#593416" d="M 704.5,550.5 C 703.51,556.645 703.177,562.978 703.5,569.5C 702.182,562.989 702.182,556.322 703.5,549.5C 704.107,549.624 704.44,549.957 704.5,550.5 Z"/></g>
<g><path style="opacity:1" fill="#faf9f8" d="M 999.5,561.5 C 1010.62,560.459 1016.12,565.459 1016,576.5C 1013.04,584.23 1007.54,587.063 999.5,585C 993.842,581.373 991.675,576.207 993,569.5C 994.305,566.039 996.471,563.372 999.5,561.5 Z"/></g>
<g><path style="opacity:1" fill="#bb9831" d="M 1021.5,560.5 C 1031.08,565.907 1038.91,573.24 1045,582.5C 1046.55,584.768 1047.39,587.268 1047.5,590C 1039.51,619.985 1020.01,636.151 989,638.5C 961.324,637.324 941.991,623.991 931,598.5C 928.243,591.423 930.743,588.256 938.5,589C 953.075,609.856 972.409,615.856 996.5,607C 1010.17,601.667 1018.34,591.834 1021,577.5C 1021.5,571.843 1021.67,566.176 1021.5,560.5 Z"/></g>
<g><path style="opacity:1" fill="#8d5e2a" d="M 723.5,569.5 C 725.773,573.293 726.773,577.293 726.5,581.5C 725.478,581.145 724.811,580.478 724.5,579.5C 725.097,579.265 725.43,578.765 725.5,578C 724.313,575.276 723.647,572.443 723.5,569.5 Z"/></g>
<g><path style="opacity:1" fill="#714824" d="M 544.5,579.5 C 543.209,579.263 542.209,579.596 541.5,580.5C 540.244,580.539 539.244,580.039 538.5,579C 540.712,578.211 542.712,578.378 544.5,579.5 Z"/></g>
<g><path style="opacity:1" fill="#716564" d="M 865.5,596.5 C 864.527,598.948 864.194,601.615 864.5,604.5C 863.194,601.313 863.194,597.98 864.5,594.5C 865.298,594.957 865.631,595.624 865.5,596.5 Z"/></g>
<g><path style="opacity:1" fill="#c0c0c0" d="M 1492.5,611.5 C 1521.26,625.882 1549.93,640.215 1578.5,654.5C 1581.83,657.499 1585.83,659.499 1590.5,660.5C 1593.76,662.153 1597.09,663.819 1600.5,665.5C 1606.73,670.114 1613.73,673.447 1621.5,675.5C 1622.96,676.737 1624.63,677.737 1626.5,678.5C 1631.17,682.166 1636.5,684.833 1642.5,686.5C 1650.01,689.783 1657.34,693.45 1664.5,697.5C 1666.64,699.071 1668.97,700.404 1671.5,701.5C 1678.27,703.718 1684.6,706.718 1690.5,710.5C 1692.18,712.008 1694.18,713.008 1696.5,713.5C 1702.75,716.13 1708.75,719.13 1714.5,722.5C 1716.85,724.341 1719.52,725.674 1722.5,726.5C 1728.81,728.99 1734.81,731.99 1740.5,735.5C 1742.85,737.341 1745.52,738.674 1748.5,739.5C 1793.64,761.403 1838.31,783.736 1882.5,806.5C 1881.5,813.16 1880.5,819.827 1879.5,826.5C 1877.38,839.896 1875.05,853.229 1872.5,866.5C 1871.88,866.611 1871.38,866.944 1871,867.5C 1868.79,876.729 1867.29,886.062 1866.5,895.5C 1864.71,903.018 1863.04,910.685 1861.5,918.5C 1860.88,918.611 1860.38,918.944 1860,919.5C 1858.84,924.122 1858.01,928.789 1857.5,933.5C 1855.47,939.962 1853.8,946.629 1852.5,953.5C 1850.66,962.535 1848.66,971.535 1846.5,980.5C 1842.96,987.988 1840.62,995.988 1839.5,1004.5C 1838.14,1010.6 1836.47,1016.6 1834.5,1022.5C 1833.88,1022.61 1833.38,1022.94 1833,1023.5C 1831.69,1027.75 1830.85,1032.09 1830.5,1036.5C 1827.51,1046.41 1824.51,1056.41 1821.5,1066.5C 1817.93,1074.05 1815.27,1082.05 1813.5,1090.5C 1811.61,1098.4 1809.28,1106.07 1806.5,1113.5C 1805.88,1113.61 1805.38,1113.94 1805,1114.5C 1803.83,1118.52 1802.66,1122.52 1801.5,1126.5C 1798.83,1134.83 1796.17,1143.17 1793.5,1151.5C 1791.08,1155.06 1789.41,1159.06 1788.5,1163.5C 1785.57,1171.71 1782.9,1180.05 1780.5,1188.5C 1779.73,1187.74 1779.23,1186.74 1779,1185.5C 1774.55,1152.78 1769.88,1120.11 1765,1087.5C 1758.42,1056.19 1750.75,1025.19 1742,994.5C 1725.97,942.772 1700.31,896.439 1665,855.5C 1641.37,830.85 1615.7,808.85 1588,789.5C 1583.23,773.533 1577.9,757.866 1572,742.5C 1556.74,699.969 1534.74,661.303 1506,626.5C 1500.6,621.636 1496.1,616.636 1492.5,611.5 Z"/></g>
<g><path style="opacity:1" fill="#6e451f" d="M 618.5,627.5 C 604.584,630.33 590.584,630.996 576.5,629.5C 590.539,629.559 604.539,628.892 618.5,627.5 Z"/></g>
<g><path style="opacity:1" fill="#80562b" d="M 387.5,580.5 C 385.485,606.298 386.485,631.965 390.5,657.5C 388.132,648.444 386.632,639.11 386,629.5C 385.333,616.5 385.333,603.5 386,590.5C 386.179,586.975 386.679,583.641 387.5,580.5 Z"/></g>
<g><path style="opacity:1" fill="#776b6b" d="M 1179.5,639.5 C 1180.38,639.369 1181.04,639.702 1181.5,640.5C 1170.01,641.824 1158.67,641.824 1147.5,640.5C 1158.35,640.828 1169.01,640.494 1179.5,639.5 Z"/></g>
<g><path style="opacity:1" fill="#000000" d="M 507.5,659.5 C 497.779,665.027 487.779,670.027 477.5,674.5C 481.94,664.335 488.773,656.001 498,649.5C 501.371,652.703 504.538,656.036 507.5,659.5 Z"/></g>
<g><path style="opacity:1" fill="#a78f7c" d="M 789.5,652.5 C 791.882,653.351 793.882,654.684 795.5,656.5C 792.392,656.625 790.392,655.292 789.5,652.5 Z"/></g>
<g><path style="opacity:1" fill="#7a7a7a" d="M 1578.5,654.5 C 1582.84,656.006 1586.84,658.006 1590.5,660.5C 1585.83,659.499 1581.83,657.499 1578.5,654.5 Z"/></g>
<g><path style="opacity:1" fill="#c0c0c0" d="M 507.5,659.5 C 511.402,661.893 514.902,664.893 518,668.5C 555.65,714.468 579.15,766.802 588.5,825.5C 574.436,833.533 561.436,843.033 549.5,854C 528.555,875.273 508.721,897.439 490,920.5C 483.898,926.447 477.398,931.78 470.5,936.5C 457.649,891.919 446.315,846.919 436.5,801.5C 442.519,806.552 447.852,812.219 452.5,818.5C 452.56,819.043 452.893,819.376 453.5,819.5C 454.495,814.208 454.828,808.875 454.5,803.5C 454.5,799.5 454.5,795.5 454.5,791.5C 455.822,780.358 456.489,769.024 456.5,757.5C 457.39,731.55 462.556,706.55 472,682.5C 473.116,679.244 474.949,676.578 477.5,674.5C 487.779,670.027 497.779,665.027 507.5,659.5 Z"/></g>
<g><path style="opacity:1" fill="#747474" d="M 1600.5,665.5 C 1607.69,668.594 1614.69,671.928 1621.5,675.5C 1613.73,673.447 1606.73,670.114 1600.5,665.5 Z"/></g>
<g><path style="opacity:1" fill="#645857" d="M 923.5,677.5 C 924.043,677.56 924.376,677.893 924.5,678.5C 922.257,679.474 919.924,679.808 917.5,679.5C 919.5,678.833 921.5,678.167 923.5,677.5 Z"/></g>
<g><path style="opacity:1" fill="#7f7f7f" d="M 1626.5,678.5 C 1632.18,680.672 1637.51,683.339 1642.5,686.5C 1636.5,684.833 1631.17,682.166 1626.5,678.5 Z"/></g>
<g><path style="opacity:1" fill="#8b0605" d="M 668.5,752.5 C 668.167,752.5 667.833,752.5 667.5,752.5C 663.096,744.695 658.429,737.028 653.5,729.5C 653.21,736.38 654.21,743.047 656.5,749.5C 658.326,762.776 659.659,776.109 660.5,789.5C 660.497,792.025 660.163,794.359 659.5,796.5C 648.35,774.866 636.683,753.532 624.5,732.5C 624.167,733.167 623.833,733.833 623.5,734.5C 629.898,754.086 634.065,774.086 636,794.5C 625.534,773.064 613.868,752.398 601,732.5C 609.411,759.476 616.244,786.81 621.5,814.5C 621.364,817.551 621.698,820.551 622.5,823.5C 622.333,824.167 622.167,824.833 622,825.5C 621.768,824.263 621.268,823.263 620.5,822.5C 608.51,774.672 591.343,729.006 569,685.5C 589.746,705.089 607.079,727.089 621,751.5C 617.752,731.091 610.918,711.924 600.5,694C 601.102,692.437 601.935,692.604 603,694.5C 607.936,701.386 613.103,708.053 618.5,714.5C 623.167,721.833 627.833,729.167 632.5,736.5C 641.327,752.486 649.327,768.819 656.5,785.5C 655.063,758.991 649.396,733.324 639.5,708.5C 639.667,708.167 639.833,707.833 640,707.5C 652.543,720.565 662.043,735.565 668.5,752.5 Z"/></g>
<g><path style="opacity:1" fill="#5b5b5b" d="M 1664.5,697.5 C 1667.68,697.584 1670.02,698.917 1671.5,701.5C 1668.97,700.404 1666.64,699.071 1664.5,697.5 Z"/></g>
<g><path style="opacity:1" fill="#807473" d="M 1263.5,703.5 C 1265.83,704.167 1268.17,704.833 1270.5,705.5C 1267.75,705.813 1265.09,705.48 1262.5,704.5C 1262.62,703.893 1262.96,703.56 1263.5,703.5 Z"/></g>
<g><path style="opacity:1" fill="#5f5f5f" d="M 1690.5,710.5 C 1693.09,710.461 1695.09,711.461 1696.5,713.5C 1694.18,713.008 1692.18,712.008 1690.5,710.5 Z"/></g>
<g><path style="opacity:1" fill="#404040" d="M 2079.5,713.5 C 2080.69,713.866 2081.36,714.699 2081.5,716C 2080.61,719.776 2080.27,723.61 2080.5,727.5C 2080.17,727.5 2079.83,727.5 2079.5,727.5C 2079.71,722.653 2079.71,717.986 2079.5,713.5 Z"/></g>
<g><path style="opacity:1" fill="#626262" d="M 1714.5,722.5 C 1717.75,722.794 1720.42,724.127 1722.5,726.5C 1719.52,725.674 1716.85,724.341 1714.5,722.5 Z"/></g>
<g><path style="opacity:1" fill="#58331b" d="M 887.5,726.5 C 887.5,727.167 887.5,727.833 887.5,728.5C 885.037,726.539 882.703,724.372 880.5,722C 883.691,722.001 886.024,723.501 887.5,726.5 Z"/></g>
<g><path style="opacity:1" fill="#82572b" d="M 434.5,728.5 C 434.485,736.329 433.485,743.996 431.5,751.5C 430.081,750.995 429.415,749.995 429.5,748.5C 430.117,748.611 430.617,748.944 431,749.5C 432.138,742.358 433.305,735.358 434.5,728.5 Z"/></g>
<g><path style="opacity:1" fill="#656565" d="M 1740.5,735.5 C 1743.75,735.794 1746.42,737.127 1748.5,739.5C 1745.52,738.674 1742.85,737.341 1740.5,735.5 Z"/></g>
<g><path style="opacity:1" fill="#61463a" d="M 1421.5,735.5 C 1410.16,735.333 1398.83,735.5 1387.5,736C 1453.57,755.707 1515.57,784.041 1573.5,821C 1633.03,860.196 1675.87,913.029 1702,979.5C 1718.19,1021.24 1729.85,1064.24 1737,1108.5C 1745.81,1165 1753.48,1221.67 1760,1278.5C 1764.13,1305.17 1769.8,1331.5 1777,1357.5C 1790.9,1409.69 1817.74,1453.69 1857.5,1489.5C 1855.58,1490.64 1853.58,1490.81 1851.5,1490C 1780.66,1462.18 1735.83,1411.35 1717,1337.5C 1708.05,1300.16 1700.72,1262.5 1695,1224.5C 1693.31,1217.74 1691.31,1211.07 1689,1204.5C 1683.35,1187.52 1673.52,1173.52 1659.5,1162.5C 1669.73,1180.05 1675.56,1199.38 1677,1220.5C 1677.33,1245.5 1677.67,1270.5 1678,1295.5C 1678.87,1322.32 1685.37,1347.65 1697.5,1371.5C 1697.17,1371.83 1696.83,1372.17 1696.5,1372.5C 1658.7,1349.94 1637.2,1316.61 1632,1272.5C 1631.24,1276.82 1630.57,1281.15 1630,1285.5C 1629.33,1321.13 1632.33,1356.47 1639,1391.5C 1640.86,1400.62 1643.2,1409.62 1646,1418.5C 1658.64,1455.46 1674.31,1491.12 1693,1525.5C 1715.07,1564.64 1734.74,1604.97 1752,1646.5C 1764.39,1677.4 1771.73,1709.4 1774,1742.5C 1768.13,1728.43 1761.47,1714.77 1754,1701.5C 1735,1671.83 1716,1642.17 1697,1612.5C 1687.01,1593.01 1678.51,1573.01 1671.5,1552.5C 1671.5,1537.83 1671.5,1523.17 1671.5,1508.5C 1649.75,1506.41 1628.08,1503.74 1606.5,1500.5C 1598.39,1485.21 1586.05,1475.37 1569.5,1471C 1575.61,1479.05 1580.27,1487.88 1583.5,1497.5C 1563.14,1495.02 1542.8,1492.35 1522.5,1489.5C 1522.33,1498.17 1522.5,1506.84 1523,1515.5C 1540.4,1532.9 1558.4,1549.57 1577,1565.5C 1577.83,1606.5 1577.67,1647.5 1576.5,1688.5C 1566.86,1674.18 1557.53,1659.85 1548.5,1645.5C 1538.52,1607.39 1527.02,1569.73 1514,1532.5C 1511.15,1548.3 1508.31,1563.97 1505.5,1579.5C 1483.82,1546.65 1462.48,1513.49 1441.5,1480C 1429.89,1478.09 1418.22,1476.59 1406.5,1475.5C 1420.67,1445.97 1430.01,1414.97 1434.5,1382.5C 1449.9,1392.73 1462.4,1405.73 1472,1421.5C 1476,1428.83 1480,1436.17 1484,1443.5C 1492.27,1462.8 1500.43,1482.14 1508.5,1501.5C 1512.11,1475.4 1515.11,1449.23 1517.5,1423C 1517.34,1403.21 1514.34,1383.88 1508.5,1365C 1508.83,1364.5 1509.17,1364 1509.5,1363.5C 1512.82,1366.32 1515.98,1369.32 1519,1372.5C 1534.84,1395.52 1551.18,1418.19 1568,1440.5C 1572.63,1446.13 1577.63,1451.47 1583,1456.5C 1577.94,1427.77 1574.94,1398.77 1574,1369.5C 1573.42,1340.51 1562.25,1316.68 1540.5,1298C 1539.83,1297.33 1539.17,1297.33 1538.5,1298C 1543.27,1307.23 1546.1,1317.07 1547,1327.5C 1547.83,1341.51 1547.67,1355.51 1546.5,1369.5C 1516.69,1328.93 1485.19,1289.59 1452,1251.5C 1440.45,1238.11 1427.29,1226.78 1412.5,1217.5C 1448.17,1255.46 1472,1300.46 1484,1352.5C 1488.88,1371.22 1491.55,1390.22 1492,1409.5C 1480.91,1382.47 1464.74,1358.97 1443.5,1339C 1431.33,1328.83 1419.17,1318.67 1407,1308.5C 1408.64,1316.42 1410.31,1324.42 1412,1332.5C 1415.54,1364.4 1410.87,1395.06 1398,1424.5C 1391.37,1440.43 1383.21,1455.43 1373.5,1469.5C 1371.52,1467.54 1370.02,1465.21 1369,1462.5C 1357.44,1434.05 1343.78,1406.72 1328,1380.5C 1314.95,1358.94 1298.45,1340.27 1278.5,1324.5C 1289.31,1341.11 1298.48,1359.11 1306,1378.5C 1314.89,1407.99 1323.05,1437.66 1330.5,1467.5C 1300.88,1464.61 1271.21,1462.27 1241.5,1460.5C 1243.31,1434.53 1243.81,1408.53 1243,1382.5C 1239.84,1317.83 1220.68,1258.5 1185.5,1204.5C 1185.83,1204.17 1186.17,1203.83 1186.5,1203.5C 1224.14,1219.89 1257.97,1241.89 1288,1269.5C 1269.97,1225.96 1243.8,1187.96 1209.5,1155.5C 1210,1154.48 1210.67,1154.31 1211.5,1155C 1222,1161.42 1232.34,1168.08 1242.5,1175C 1287,1207.81 1328.16,1244.65 1366,1285.5C 1334.86,1179.36 1270.36,1100.53 1172.5,1049C 1212.52,1056.34 1250.52,1069.67 1286.5,1089C 1318.97,1107.97 1349.63,1129.47 1378.5,1153.5C 1372.37,1129.54 1362.54,1106.88 1349,1085.5C 1333.51,1060.5 1312.34,1042.17 1285.5,1030.5C 1270.32,1022.74 1254.98,1015.24 1239.5,1008C 1237.77,1006.21 1237.1,1004.04 1237.5,1001.5C 1281.94,1007.48 1322.94,1022.65 1360.5,1047C 1413.21,1083.05 1456.38,1128.21 1490,1182.5C 1498.86,1197.55 1507.19,1212.88 1515,1228.5C 1515.62,1178.07 1507.12,1129.23 1489.5,1082C 1489.67,1081.5 1489.83,1081 1490,1080.5C 1512.44,1099.93 1530.78,1122.6 1545,1148.5C 1561.37,1179.58 1574.71,1211.91 1585,1245.5C 1592.47,1270.37 1599.47,1295.37 1606,1320.5C 1610.8,1268.34 1606.13,1217 1592,1166.5C 1567.45,1069.88 1521.95,985.043 1455.5,912C 1467.54,915.004 1478.54,920.337 1488.5,928C 1520.75,951.91 1550.25,979.076 1577,1009.5C 1597.38,1033.54 1617.38,1057.88 1637,1082.5C 1623.21,1043.82 1608.21,1005.48 1592,967.5C 1574.44,928.282 1549.61,894.449 1517.5,866C 1499.3,851.728 1479.63,839.728 1458.5,830C 1485.04,830.741 1510.7,835.908 1535.5,845.5C 1536.52,844.998 1536.69,844.332 1536,843.5C 1511.82,809.672 1479.65,787.672 1439.5,777.5C 1440.24,777.631 1440.91,777.464 1441.5,777C 1423.83,766.167 1406.17,755.333 1388.5,744.5C 1385.86,741.734 1384.86,738.401 1385.5,734.5C 1397.68,734.172 1409.68,734.505 1421.5,735.5 Z"/></g>
<g><path style="opacity:1" fill="#746767" d="M 1360.5,744.5 C 1361.29,744.783 1361.96,745.283 1362.5,746C 1359.96,746.796 1357.63,746.629 1355.5,745.5C 1357.41,745.784 1359.08,745.451 1360.5,744.5 Z"/></g>
<g><path style="opacity:1" fill="#7e7e7e" d="M 2079.5,727.5 C 2079.83,727.5 2080.17,727.5 2080.5,727.5C 2080,736.526 2079.16,745.526 2078,754.5C 2077.72,755.416 2077.22,756.082 2076.5,756.5C 2077.05,746.644 2078.05,736.977 2079.5,727.5 Z"/></g>
<g><path style="opacity:1" fill="#6a2c2a" d="M 656.5,749.5 C 660.288,765.182 661.622,781.182 660.5,797.5C 659.893,797.376 659.56,797.043 659.5,796.5C 660.163,794.359 660.497,792.025 660.5,789.5C 659.659,776.109 658.326,762.776 656.5,749.5 Z"/></g>
<g><path style="opacity:1" fill="#7c302d" d="M 667.5,752.5 C 667.833,752.5 668.167,752.5 668.5,752.5C 671.653,755.475 673.153,759.142 673,763.5C 671.072,759.882 669.238,756.216 667.5,752.5 Z"/></g>
<g><path style="opacity:1" fill="#2b0603" d="M 1439.5,777.5 C 1479.65,787.672 1511.82,809.672 1536,843.5C 1536.69,844.332 1536.52,844.998 1535.5,845.5C 1510.7,835.908 1485.04,830.741 1458.5,830C 1479.63,839.728 1499.3,851.728 1517.5,866C 1549.61,894.449 1574.44,928.282 1592,967.5C 1608.21,1005.48 1623.21,1043.82 1637,1082.5C 1617.38,1057.88 1597.38,1033.54 1577,1009.5C 1550.25,979.076 1520.75,951.91 1488.5,928C 1478.54,920.337 1467.54,915.004 1455.5,912C 1521.95,985.043 1567.45,1069.88 1592,1166.5C 1606.13,1217 1610.8,1268.34 1606,1320.5C 1599.47,1295.37 1592.47,1270.37 1585,1245.5C 1574.71,1211.91 1561.37,1179.58 1545,1148.5C 1530.78,1122.6 1512.44,1099.93 1490,1080.5C 1489.83,1081 1489.67,1081.5 1489.5,1082C 1507.12,1129.23 1515.62,1178.07 1515,1228.5C 1507.19,1212.88 1498.86,1197.55 1490,1182.5C 1456.38,1128.21 1413.21,1083.05 1360.5,1047C 1322.94,1022.65 1281.94,1007.48 1237.5,1001.5C 1237.61,1000.88 1237.94,1000.38 1238.5,1000C 1262.95,996.382 1287.28,997.049 1311.5,1002C 1360.11,1012.9 1404.28,1033.06 1444,1062.5C 1444.5,1062.17 1445,1061.83 1445.5,1061.5C 1435.1,1041.94 1422.93,1023.61 1409,1006.5C 1391.06,987.712 1371.23,971.378 1349.5,957.5C 1350.67,957.167 1351.83,956.833 1353,956.5C 1390.28,961.237 1424.11,974.403 1454.5,996C 1483.16,1017.99 1507.66,1043.83 1528,1073.5C 1529.06,1075.4 1529.9,1075.56 1530.5,1074C 1520.31,1051.12 1509.48,1028.62 1498,1006.5C 1485.89,983.939 1471.56,962.939 1455,943.5C 1439.15,925.836 1420.32,912.502 1398.5,903.5C 1361.49,902.855 1324.49,901.689 1287.5,900C 1277.78,898.658 1268.11,896.991 1258.5,895C 1232.85,890.174 1210.85,878.508 1192.5,860C 1201.91,864.193 1211.58,868.193 1221.5,872C 1229,874.433 1236.67,876.1 1244.5,877C 1259.13,878.561 1273.79,879.561 1288.5,880C 1323.5,880.333 1358.5,880.667 1393.5,881C 1404.85,881.413 1416.18,882.08 1427.5,883C 1455.92,885.581 1481.59,895.248 1504.5,912C 1514.66,920.71 1525.32,928.377 1536.5,935C 1521.63,908.781 1502.97,885.448 1480.5,865C 1463.38,850.911 1443.71,842.911 1421.5,841C 1410.66,840.559 1399.99,840.392 1389.5,840.5C 1397.21,830.294 1406.88,822.461 1418.5,817C 1431.92,812.717 1445.59,809.717 1459.5,808C 1409.23,795.706 1361.56,802.372 1316.5,828C 1304.47,835.487 1292.81,843.154 1281.5,851C 1287.29,843.256 1292.46,835.089 1297,826.5C 1298.24,822.94 1298.74,819.273 1298.5,815.5C 1284.19,819.212 1269.85,823.046 1255.5,827C 1226.88,833.895 1197.88,836.895 1168.5,836C 1166.74,835.798 1165.08,835.298 1163.5,834.5C 1222.41,823.047 1276.41,800.047 1325.5,765.5C 1325.83,765.833 1326.17,766.167 1326.5,766.5C 1323.63,773.762 1320.97,781.096 1318.5,788.5C 1318.83,789.167 1319.17,789.833 1319.5,790.5C 1358.22,774.754 1398.22,770.42 1439.5,777.5 Z"/></g>
<g><path style="opacity:1" fill="#837776" d="M 1062.5,777.5 C 1054.83,778.167 1047.17,778.833 1039.5,779.5C 1037.9,779.688 1036.56,779.188 1035.5,778C 1044.49,777.5 1053.49,777.334 1062.5,777.5 Z"/></g>
<g><path style="opacity:1" fill="#928887" d="M 1171.5,779.5 C 1178.68,780.655 1186.01,780.655 1193.5,779.5C 1192.74,780.268 1191.74,780.768 1190.5,781C 1183.48,781.831 1176.48,781.664 1169.5,780.5C 1169.96,779.702 1170.62,779.369 1171.5,779.5 Z"/></g>
<g><path style="opacity:1" fill="#847a79" d="M 456.5,757.5 C 456.489,769.024 455.822,780.358 454.5,791.5C 454.369,779.968 455.036,768.634 456.5,757.5 Z"/></g>
<g><path style="opacity:1" fill="#8d8d8d" d="M 2074.5,776.5 C 2074.15,782.84 2073.65,789.173 2073,795.5C 2072.9,798.522 2072.07,801.189 2070.5,803.5C 2071.55,794.324 2072.89,785.324 2074.5,776.5 Z"/></g>
<g><path style="opacity:1" fill="#616161" d="M 1882.5,806.5 C 1883.63,808.628 1883.8,810.961 1883,813.5C 1882.15,817.469 1881.48,821.469 1881,825.5C 1880.62,826.056 1880.12,826.389 1879.5,826.5C 1880.5,819.827 1881.5,813.16 1882.5,806.5 Z"/></g>
<g><path style="opacity:1" fill="#774d23" d="M 943.5,796.5 C 945.033,800.896 945.7,805.563 945.5,810.5C 945.498,814.018 945.165,817.351 944.5,820.5C 944.656,812.471 944.323,804.471 943.5,796.5 Z"/></g>
<g><path style="opacity:1" fill="#554646" d="M 454.5,803.5 C 454.828,808.875 454.495,814.208 453.5,819.5C 452.893,819.376 452.56,819.043 452.5,818.5C 453.167,813.5 453.833,808.5 454.5,803.5 Z"/></g>
<g><path style="opacity:1" fill="#734921" d="M 984.5,817.5 C 985.164,819.978 985.497,822.645 985.5,825.5C 985.579,830.412 984.912,835.079 983.5,839.5C 984.187,832.187 984.521,824.854 984.5,817.5 Z"/></g>
<g><path style="opacity:1" fill="#646464" d="M 2069.5,813.5 C 2069.22,818.777 2068.22,823.777 2066.5,828.5C 2066.67,823.804 2067.17,819.137 2068,814.5C 2068.38,813.944 2068.88,813.611 2069.5,813.5 Z"/></g>
<g><path style="opacity:1" fill="#712e2c" d="M 621.5,814.5 C 623.242,819.59 623.742,824.923 623,830.5C 621.409,828.073 620.575,825.407 620.5,822.5C 621.268,823.263 621.768,824.263 622,825.5C 622.167,824.833 622.333,824.167 622.5,823.5C 621.698,820.551 621.364,817.551 621.5,814.5 Z"/></g>
<g><path style="opacity:1" fill="#717171" d="M 2066.5,828.5 C 2066.55,836.228 2065.22,843.561 2062.5,850.5C 2063.42,842.965 2064.75,835.631 2066.5,828.5 Z"/></g>
<g><path style="opacity:1" fill="#713331" d="M 641.5,855.5 C 633.804,855.354 626.138,855.687 618.5,856.5C 622.728,854.975 627.228,854.308 632,854.5C 635.352,854.502 638.518,854.835 641.5,855.5 Z"/></g>
<g><path style="opacity:1" fill="#8b0302" d="M 641.5,855.5 C 649.453,857.211 657.12,860.044 664.5,864C 639.763,882.281 618.263,903.781 600,928.5C 599.312,929.332 599.479,929.998 600.5,930.5C 625.079,906.837 652.745,887.67 683.5,873C 692.7,870.102 701.7,866.935 710.5,863.5C 717.137,862.724 723.804,862.391 730.5,862.5C 732.086,863.148 733.753,863.648 735.5,864C 723.288,869.263 711.955,875.763 701.5,883.5C 697.627,885.037 694.293,887.37 691.5,890.5C 695.442,890.404 699.109,889.071 702.5,886.5C 711.761,883.246 721.094,880.079 730.5,877C 737.944,874.177 745.61,873.177 753.5,874C 758.746,874.939 762.412,877.772 764.5,882.5C 715.055,897.545 671.389,922.378 633.5,957C 618.446,972.054 603.446,987.054 588.5,1002C 575.774,1011.2 561.774,1017.37 546.5,1020.5C 536.809,1020.66 527.143,1020.32 517.5,1019.5C 507.879,1017.18 498.546,1013.85 489.5,1009.5C 523.77,1011.69 551.77,999.688 573.5,973.5C 572.21,972.592 570.877,972.759 569.5,974C 556.181,984.325 541.181,990.825 524.5,993.5C 515.143,993.65 505.809,993.317 496.5,992.5C 487.037,990.067 477.704,986.901 468.5,983C 475.263,978.568 482.263,974.568 489.5,971C 503.262,960.573 515.762,948.74 527,935.5C 543.38,914.116 561.547,894.283 581.5,876C 586.322,872.089 591.322,868.422 596.5,865C 603.811,861.834 611.144,859.001 618.5,856.5C 626.138,855.687 633.804,855.354 641.5,855.5 Z"/></g>
<g><path style="opacity:1" fill="#743231" d="M 730.5,862.5 C 723.804,862.391 717.137,862.724 710.5,863.5C 714.223,862.003 718.223,861.337 722.5,861.5C 725.355,861.503 728.022,861.836 730.5,862.5 Z"/></g>
<g><path style="opacity:1" fill="#787878" d="M 1872.5,866.5 C 1870.73,876.342 1868.73,886.009 1866.5,895.5C 1867.29,886.062 1868.79,876.729 1871,867.5C 1871.38,866.944 1871.88,866.611 1872.5,866.5 Z"/></g>
<g><path style="opacity:1" fill="#571e1e" d="M 701.5,883.5 C 701.047,884.458 700.381,885.292 699.5,886C 700.448,886.483 701.448,886.649 702.5,886.5C 699.109,889.071 695.442,890.404 691.5,890.5C 694.293,887.37 697.627,885.037 701.5,883.5 Z"/></g>
<g><path style="opacity:1" fill="#777777" d="M 2054.5,894.5 C 2054.14,902.273 2052.97,909.94 2051,917.5C 2050.62,918.056 2050.12,918.389 2049.5,918.5C 2050.68,910.277 2052.34,902.277 2054.5,894.5 Z"/></g>
<g><path style="opacity:1" fill="#9b9191" d="M 1137.5,910.5 C 1143.84,910.334 1150.18,910.5 1156.5,911C 1158.71,911.191 1160.71,911.691 1162.5,912.5C 1153.99,912.14 1145.66,911.473 1137.5,910.5 Z"/></g>
<g><path style="opacity:1" fill="#7a7a7a" d="M 1861.5,918.5 C 1860.66,923.741 1859.33,928.741 1857.5,933.5C 1858.01,928.789 1858.84,924.122 1860,919.5C 1860.38,918.944 1860.88,918.611 1861.5,918.5 Z"/></g>
<g><path style="opacity:1" fill="#626262" d="M 1857.5,933.5 C 1856.79,939.905 1855.62,946.239 1854,952.5C 1853.62,953.056 1853.12,953.389 1852.5,953.5C 1853.8,946.629 1855.47,939.962 1857.5,933.5 Z"/></g>
<g><path style="opacity:1" fill="#99908f" d="M 1090.5,952.5 C 1092.43,952.231 1094.1,952.731 1095.5,954C 1089.53,954.963 1083.53,955.463 1077.5,955.5C 1081.88,954.743 1086.21,953.743 1090.5,952.5 Z"/></g>
<g><path style="opacity:1" fill="#875a2d" d="M 822.5,978.5 C 816.804,980.561 810.804,981.561 804.5,981.5C 810.301,980.089 816.301,979.089 822.5,978.5 Z"/></g>
<g><path style="opacity:1" fill="#744a23" d="M 766.5,981.5 C 763.781,982.913 760.781,983.58 757.5,983.5C 760.219,982.087 763.219,981.42 766.5,981.5 Z"/></g>
<g><path style="opacity:1" fill="#8e5f2b" d="M 803.5,981.5 C 798.432,983.178 793.098,983.844 787.5,983.5C 792.646,982.449 797.979,981.782 803.5,981.5 Z"/></g>
<g><path style="opacity:1" fill="#646464" d="M 1846.5,980.5 C 1844.53,988.729 1842.2,996.729 1839.5,1004.5C 1840.62,995.988 1842.96,987.988 1846.5,980.5 Z"/></g>
<g><path style="opacity:1" fill="#885d32" d="M 757.5,983.5 C 761.634,984.485 765.968,984.818 770.5,984.5C 764.987,985.816 759.32,985.816 753.5,984.5C 754.689,983.571 756.022,983.238 757.5,983.5 Z"/></g>
<g><path style="opacity:1" fill="#885c32" d="M 806.5,993.5 C 810.351,992.191 814.351,992.191 818.5,993.5C 817.311,994.429 815.978,994.762 814.5,994.5C 812.052,993.527 809.385,993.194 806.5,993.5 Z"/></g>
<g><path style="opacity:1" fill="#7a3735" d="M 496.5,992.5 C 505.809,993.317 515.143,993.65 524.5,993.5C 520.849,994.165 517.015,994.499 513,994.5C 507.248,994.689 501.748,994.022 496.5,992.5 Z"/></g>
<g><path style="opacity:1" fill="#300c06" d="M 806.5,993.5 C 809.385,993.194 812.052,993.527 814.5,994.5C 795.61,998.514 776.943,1003.68 758.5,1010C 745.888,1014.43 733.388,1019.26 721,1024.5C 673.678,1044.01 632.178,1072.01 596.5,1108.5C 595.662,1108.16 595.328,1107.49 595.5,1106.5C 628.755,1057.38 673.088,1022.38 728.5,1001.5C 730.373,1001.48 730.706,1001.98 729.5,1003C 720.833,1009 712.167,1015 703.5,1021C 713.318,1018.91 722.985,1015.75 732.5,1011.5C 747.434,1007.14 762.434,1003.14 777.5,999.5C 780.781,999.58 783.781,998.913 786.5,997.5C 792.923,995.549 799.589,994.215 806.5,993.5 Z"/></g>
<g><path style="opacity:1" fill="#774d25" d="M 786.5,997.5 C 783.781,998.913 780.781,999.58 777.5,999.5C 780.219,998.087 783.219,997.42 786.5,997.5 Z"/></g>
<g><path style="opacity:1" fill="#733332" d="M 517.5,1019.5 C 527.143,1020.32 536.809,1020.66 546.5,1020.5C 542.681,1021.17 538.681,1021.5 534.5,1021.5C 528.583,1021.7 522.916,1021.03 517.5,1019.5 Z"/></g>
<g><path style="opacity:1" fill="#787878" d="M 1834.5,1022.5 C 1833.53,1027.38 1832.2,1032.05 1830.5,1036.5C 1830.85,1032.09 1831.69,1027.75 1833,1023.5C 1833.38,1022.94 1833.88,1022.61 1834.5,1022.5 Z"/></g>
<g><path style="opacity:1" fill="#9a9090" d="M 968.5,1038.5 C 964.958,1038.19 961.625,1038.52 958.5,1039.5C 956.158,1039.5 954.158,1038.66 952.5,1037C 958.03,1036.67 963.363,1037.17 968.5,1038.5 Z"/></g>
<g><path style="opacity:1" fill="#827676" d="M 796.5,1058.5 C 798.833,1059.17 801.167,1059.83 803.5,1060.5C 800.813,1060.66 798.146,1060.5 795.5,1060C 791.774,1058.96 792.107,1058.46 796.5,1058.5 Z"/></g>
<g><path style="opacity:1" fill="#787878" d="M 1821.5,1066.5 C 1819.49,1074.19 1817.33,1081.86 1815,1089.5C 1814.62,1090.06 1814.12,1090.39 1813.5,1090.5C 1815.27,1082.05 1817.93,1074.05 1821.5,1066.5 Z"/></g>
<g><path style="opacity:1" fill="#754b23" d="M 513.5,1088.5 C 513.59,1091.15 512.924,1093.49 511.5,1095.5C 511.41,1092.85 512.076,1090.51 513.5,1088.5 Z"/></g>
<g><path style="opacity:1" fill="#58321b" d="M 595.5,1106.5 C 595.328,1107.49 595.662,1108.16 596.5,1108.5C 593.213,1112.96 589.713,1117.29 586,1121.5C 588.12,1115.95 591.286,1110.95 595.5,1106.5 Z"/></g>
<g><path style="opacity:1" fill="#686868" d="M 1806.5,1113.5 C 1805.79,1118.32 1804.12,1122.66 1801.5,1126.5C 1802.66,1122.52 1803.83,1118.52 1805,1114.5C 1805.38,1113.94 1805.88,1113.61 1806.5,1113.5 Z"/></g>
<g><path style="opacity:1" fill="#7a6f6e" d="M 692.5,1121.5 C 693.209,1122.4 694.209,1122.74 695.5,1122.5C 693.314,1123.96 690.981,1124.3 688.5,1123.5C 689.577,1122.29 690.91,1121.63 692.5,1121.5 Z"/></g>
<g><path style="opacity:1" fill="#774d23" d="M 482.5,1116.5 C 481.237,1128.84 481.237,1141.17 482.5,1153.5C 479.863,1141.17 479.863,1128.84 482.5,1116.5 Z"/></g>
<g><path style="opacity:1" fill="#686868" d="M 1793.5,1151.5 C 1792.59,1155.94 1790.92,1159.94 1788.5,1163.5C 1789.41,1159.06 1791.08,1155.06 1793.5,1151.5 Z"/></g>
<g><path style="opacity:1" fill="#61463a" d="M 1224.5,1459.5 C 1152.77,1455.44 1081.11,1456.44 1009.5,1462.5C 1011.72,1437.99 1010.55,1413.65 1006,1389.5C 1001.95,1373.06 994.947,1358.06 985,1344.5C 989.179,1366.04 989.513,1387.71 986,1409.5C 981.504,1429.82 975.337,1449.48 967.5,1468.5C 966.306,1467.22 964.64,1466.56 962.5,1466.5C 936.138,1468.97 909.805,1471.64 883.5,1474.5C 891.061,1461.38 897.561,1447.71 903,1433.5C 908.217,1415.44 909.55,1397.1 907,1378.5C 904.692,1358.27 900.026,1338.6 893,1319.5C 900.262,1357.22 894.595,1392.88 876,1426.5C 867.652,1440.53 858.318,1453.87 848,1466.5C 849.138,1455.86 850.472,1445.19 852,1434.5C 852.899,1418.12 852.399,1401.78 850.5,1385.5C 846.625,1408.59 838.792,1430.25 827,1450.5C 808.322,1479.19 790.155,1508.19 772.5,1537.5C 771.504,1537.59 770.671,1537.25 770,1536.5C 762.401,1525.62 754.567,1514.96 746.5,1504.5C 753.113,1484.82 758.613,1464.82 763,1444.5C 764.595,1431.85 764.761,1419.18 763.5,1406.5C 760.439,1429.12 751.105,1448.62 735.5,1465C 726.369,1472.46 717.536,1480.3 709,1488.5C 706.946,1491.05 705.113,1493.71 703.5,1496.5C 700.124,1497.08 696.791,1497.74 693.5,1498.5C 694.238,1488.31 696.071,1478.31 699,1468.5C 707.444,1443.27 719.777,1420.27 736,1399.5C 757.146,1374.69 777.146,1349.03 796,1322.5C 809.617,1301.31 818.284,1278.31 822,1253.5C 814.333,1267.5 806.667,1281.5 799,1295.5C 782.218,1321.12 760.718,1341.78 734.5,1357.5C 734.167,1356.67 733.833,1355.83 733.5,1355C 738.434,1335.51 735.101,1317.68 723.5,1301.5C 709.364,1375.62 675.031,1438.46 620.5,1490C 619.668,1490.69 619.002,1490.52 618.5,1489.5C 625.827,1476.02 630.661,1461.68 633,1446.5C 634.795,1422.84 636.461,1399.18 638,1375.5C 641.658,1353.85 648.991,1333.52 660,1314.5C 671.132,1296.7 683.798,1280.03 698,1264.5C 704.565,1258.28 710.565,1251.95 716,1245.5C 655.468,1282.34 599.802,1325.67 549,1375.5C 534.147,1391.01 520.814,1407.68 509,1425.5C 507.018,1428.16 506.185,1427.66 506.5,1424C 509.701,1410.4 514.868,1397.57 522,1385.5C 536.508,1363.32 552.175,1341.99 569,1321.5C 579.776,1305.62 588.11,1288.62 594,1270.5C 581.195,1289.64 564.861,1304.97 545,1316.5C 566.799,1274.83 594.633,1237.33 628.5,1204C 647.813,1187.51 670.146,1177.85 695.5,1175C 718.712,1173.98 741.045,1177.98 762.5,1187C 801.102,1203.13 837.769,1222.63 872.5,1245.5C 873.521,1245 873.688,1244.33 873,1243.5C 854.402,1216.56 830.569,1195.73 801.5,1181C 806.828,1180.93 812.162,1181.27 817.5,1182C 832.397,1185.41 846.73,1190.41 860.5,1197C 931.644,1234.53 993.81,1283.7 1047,1344.5C 1040.09,1301.78 1026.76,1261.11 1007,1222.5C 1001.11,1211.36 993.775,1201.36 985,1192.5C 984.312,1191.67 984.479,1191 985.5,1190.5C 1016.62,1209.45 1045.62,1231.28 1072.5,1256C 1133.78,1316.08 1184.45,1383.92 1224.5,1459.5 Z"/></g>
<g><path style="opacity:1" fill="#626262" d="M 1965.5,1214.5 C 1964.65,1218.55 1963.48,1222.55 1962,1226.5C 1961.62,1227.06 1961.12,1227.39 1960.5,1227.5C 1961.6,1222.86 1963.27,1218.52 1965.5,1214.5 Z"/></g>
<g><path style="opacity:1" fill="#2b0502" d="M 1406.5,1475.5 C 1381.2,1472.57 1355.86,1469.9 1330.5,1467.5C 1323.05,1437.66 1314.89,1407.99 1306,1378.5C 1298.48,1359.11 1289.31,1341.11 1278.5,1324.5C 1298.45,1340.27 1314.95,1358.94 1328,1380.5C 1343.78,1406.72 1357.44,1434.05 1369,1462.5C 1370.02,1465.21 1371.52,1467.54 1373.5,1469.5C 1383.21,1455.43 1391.37,1440.43 1398,1424.5C 1410.87,1395.06 1415.54,1364.4 1412,1332.5C 1410.31,1324.42 1408.64,1316.42 1407,1308.5C 1419.17,1318.67 1431.33,1328.83 1443.5,1339C 1464.74,1358.97 1480.91,1382.47 1492,1409.5C 1491.55,1390.22 1488.88,1371.22 1484,1352.5C 1472,1300.46 1448.17,1255.46 1412.5,1217.5C 1427.29,1226.78 1440.45,1238.11 1452,1251.5C 1485.19,1289.59 1516.69,1328.93 1546.5,1369.5C 1547.67,1355.51 1547.83,1341.51 1547,1327.5C 1546.1,1317.07 1543.27,1307.23 1538.5,1298C 1539.17,1297.33 1539.83,1297.33 1540.5,1298C 1562.25,1316.68 1573.42,1340.51 1574,1369.5C 1574.94,1398.77 1577.94,1427.77 1583,1456.5C 1577.63,1451.47 1572.63,1446.13 1568,1440.5C 1551.18,1418.19 1534.84,1395.52 1519,1372.5C 1515.98,1369.32 1512.82,1366.32 1509.5,1363.5C 1509.17,1364 1508.83,1364.5 1508.5,1365C 1514.34,1383.88 1517.34,1403.21 1517.5,1423C 1515.11,1449.23 1512.11,1475.4 1508.5,1501.5C 1500.43,1482.14 1492.27,1462.8 1484,1443.5C 1480,1436.17 1476,1428.83 1472,1421.5C 1462.4,1405.73 1449.9,1392.73 1434.5,1382.5C 1430.01,1414.97 1420.67,1445.97 1406.5,1475.5 Z"/></g>
<g><path style="opacity:1" fill="#686868" d="M 1954.5,1245.5 C 1952.94,1251.61 1950.6,1257.27 1947.5,1262.5C 1948.89,1256.32 1951.22,1250.65 1954.5,1245.5 Z"/></g>
<g><path style="opacity:1" fill="#2b0502" d="M 883.5,1474.5 C 862.157,1476.83 840.824,1479.33 819.5,1482C 818.515,1491.42 818.182,1500.92 818.5,1510.5C 824.095,1512.98 829.095,1516.48 833.5,1521C 837.327,1522.75 840.993,1524.75 844.5,1527C 849.454,1531.33 854.454,1535.67 859.5,1540C 863.448,1541.14 866.448,1543.47 868.5,1547C 869.872,1547.4 871.205,1547.9 872.5,1548.5C 873.667,1584.16 873.833,1619.83 873,1655.5C 864.701,1647.55 857.868,1638.55 852.5,1628.5C 836.902,1600.18 830.235,1569.85 832.5,1537.5C 833.797,1535.31 833.797,1532.97 832.5,1530.5C 831.893,1530.62 831.56,1530.96 831.5,1531.5C 819.656,1544.51 810.323,1559.18 803.5,1575.5C 803.013,1576.47 802.513,1577.47 802,1578.5C 800.561,1576.73 799.561,1574.73 799,1572.5C 789.673,1561.17 780.84,1549.5 772.5,1537.5C 790.155,1508.19 808.322,1479.19 827,1450.5C 838.792,1430.25 846.625,1408.59 850.5,1385.5C 852.399,1401.78 852.899,1418.12 852,1434.5C 850.472,1445.19 849.138,1455.86 848,1466.5C 858.318,1453.87 867.652,1440.53 876,1426.5C 894.595,1392.88 900.262,1357.22 893,1319.5C 900.026,1338.6 904.692,1358.27 907,1378.5C 909.55,1397.1 908.217,1415.44 903,1433.5C 897.561,1447.71 891.061,1461.38 883.5,1474.5 Z"/></g>
<g><path style="opacity:1" fill="#2b0502" d="M 1009.5,1462.5 C 997.829,1463.45 986.162,1464.45 974.5,1465.5C 974.334,1475.17 974.5,1484.84 975,1494.5C 984.492,1502.34 993.659,1510.5 1002.5,1519C 1006.25,1519.92 1008.92,1522.09 1010.5,1525.5C 1012.04,1558.35 1019.54,1590.01 1033,1620.5C 1031.77,1596.11 1032.6,1571.77 1035.5,1547.5C 1036.36,1548.69 1037.36,1549.85 1038.5,1551C 1044.83,1551.1 1051.16,1550.94 1057.5,1550.5C 1060.15,1560.96 1063.32,1571.29 1067,1581.5C 1074.83,1601.48 1082.33,1621.48 1089.5,1641.5C 1071.58,1674.68 1054.24,1708.02 1037.5,1741.5C 1032.95,1726.69 1027.11,1712.35 1020,1698.5C 1008.58,1679.33 996.918,1660.33 985,1641.5C 978.573,1629.98 972.739,1618.31 967.5,1606.5C 967.5,1560.5 967.5,1514.5 967.5,1468.5C 975.337,1449.48 981.504,1429.82 986,1409.5C 989.513,1387.71 989.179,1366.04 985,1344.5C 994.947,1358.06 1001.95,1373.06 1006,1389.5C 1010.55,1413.65 1011.72,1437.99 1009.5,1462.5 Z"/></g>
<g><path style="opacity:1" fill="#9e9494" d="M 1210.5,1355.5 C 1211.62,1359.29 1212.28,1363.29 1212.5,1367.5C 1212.76,1372.35 1212.1,1373.02 1210.5,1369.5C 1211.05,1365.02 1211.05,1360.35 1210.5,1355.5 Z"/></g>
<g><path style="opacity:1" fill="#2b0603" d="M 746.5,1504.5 C 744.513,1500.32 741.846,1496.49 738.5,1493C 726.821,1493.75 715.154,1494.92 703.5,1496.5C 705.113,1493.71 706.946,1491.05 709,1488.5C 717.536,1480.3 726.369,1472.46 735.5,1465C 751.105,1448.62 760.439,1429.12 763.5,1406.5C 764.761,1419.18 764.595,1431.85 763,1444.5C 758.613,1464.82 753.113,1484.82 746.5,1504.5 Z"/></g>
<g><path style="opacity:1" fill="#000000" d="M 568.5,1418.5 C 570.144,1423.59 571.144,1428.92 571.5,1434.5C 571.631,1465.15 574.798,1495.48 581,1525.5C 591.121,1573.75 613.288,1615.42 647.5,1650.5C 648.5,1624.18 648.833,1597.84 648.5,1571.5C 646.692,1571.51 645.025,1571.01 643.5,1570C 627.615,1558.15 611.115,1546.98 594,1536.5C 593.5,1527.84 593.334,1519.17 593.5,1510.5C 626.832,1506.5 660.166,1502.5 693.5,1498.5C 696.791,1497.74 700.124,1497.08 703.5,1496.5C 715.154,1494.92 726.821,1493.75 738.5,1493C 741.846,1496.49 744.513,1500.32 746.5,1504.5C 754.567,1514.96 762.401,1525.62 770,1536.5C 770.671,1537.25 771.504,1537.59 772.5,1537.5C 780.84,1549.5 789.673,1561.17 799,1572.5C 799.561,1574.73 800.561,1576.73 802,1578.5C 802.513,1577.47 803.013,1576.47 803.5,1575.5C 819.409,1593.42 835.743,1611.08 852.5,1628.5C 857.868,1638.55 864.701,1647.55 873,1655.5C 873.833,1619.83 873.667,1584.16 872.5,1548.5C 871.205,1547.9 869.872,1547.4 868.5,1547C 866.448,1543.47 863.448,1541.14 859.5,1540C 854.454,1535.67 849.454,1531.33 844.5,1527C 840.993,1524.75 837.327,1522.75 833.5,1521C 829.095,1516.48 824.095,1512.98 818.5,1510.5C 818.182,1500.92 818.515,1491.42 819.5,1482C 840.824,1479.33 862.157,1476.83 883.5,1474.5C 909.805,1471.64 936.138,1468.97 962.5,1466.5C 964.64,1466.56 966.306,1467.22 967.5,1468.5C 967.5,1514.5 967.5,1560.5 967.5,1606.5C 967.5,1625.83 967.5,1645.17 967.5,1664.5C 967.5,1681.5 967.5,1698.5 967.5,1715.5C 967.17,1722.2 967.503,1728.87 968.5,1735.5C 984.509,1749.03 1001.18,1761.86 1018.5,1774C 1019.64,1774.75 1020.64,1774.58 1021.5,1773.5C 1027.79,1763.27 1033.13,1752.6 1037.5,1741.5C 1054.24,1708.02 1071.58,1674.68 1089.5,1641.5C 1097.11,1626.62 1104.44,1611.62 1111.5,1596.5C 1120.25,1581.29 1128.25,1565.62 1135.5,1549.5C 1123.54,1549.2 1111.54,1549.2 1099.5,1549.5C 1085.51,1550.23 1071.51,1550.57 1057.5,1550.5C 1051.16,1550.94 1044.83,1551.1 1038.5,1551C 1037.36,1549.85 1036.36,1548.69 1035.5,1547.5C 1027.84,1539.52 1019.51,1532.18 1010.5,1525.5C 1008.92,1522.09 1006.25,1519.92 1002.5,1519C 993.659,1510.5 984.492,1502.34 975,1494.5C 974.5,1484.84 974.334,1475.17 974.5,1465.5C 986.162,1464.45 997.829,1463.45 1009.5,1462.5C 1081.11,1456.44 1152.77,1455.44 1224.5,1459.5C 1230.19,1459.53 1235.86,1459.87 1241.5,1460.5C 1271.21,1462.27 1300.88,1464.61 1330.5,1467.5C 1355.86,1469.9 1381.2,1472.57 1406.5,1475.5C 1418.22,1476.59 1429.89,1478.09 1441.5,1480C 1462.48,1513.49 1483.82,1546.65 1505.5,1579.5C 1519.86,1601.57 1534.19,1623.57 1548.5,1645.5C 1557.53,1659.85 1566.86,1674.18 1576.5,1688.5C 1577.67,1647.5 1577.83,1606.5 1577,1565.5C 1558.4,1549.57 1540.4,1532.9 1523,1515.5C 1522.5,1506.84 1522.33,1498.17 1522.5,1489.5C 1542.8,1492.35 1563.14,1495.02 1583.5,1497.5C 1591.13,1498.75 1598.8,1499.75 1606.5,1500.5C 1628.08,1503.74 1649.75,1506.41 1671.5,1508.5C 1671.5,1523.17 1671.5,1537.83 1671.5,1552.5C 1671.33,1611.17 1671.5,1669.83 1672,1728.5C 1674.61,1732.58 1676.45,1736.91 1677.5,1741.5C 1675.89,1744.29 1674.05,1746.95 1672,1749.5C 1671.33,1775.17 1671.33,1800.83 1672,1826.5C 1676.67,1844.5 1681.33,1862.5 1686,1880.5C 1686.5,1889.83 1686.67,1899.16 1686.5,1908.5C 1650.19,1909.15 1613.86,1908.99 1577.5,1908C 1573.69,1903.52 1570.03,1899.02 1566.5,1894.5C 1539.89,1857.92 1513.72,1820.92 1488,1783.5C 1474.82,1762.81 1461.32,1742.48 1447.5,1722.5C 1446.17,1764.5 1446.17,1806.5 1447.5,1848.5C 1478.13,1865.15 1510.13,1878.49 1543.5,1888.5C 1526.5,1904.5 1509.5,1920.5 1492.5,1936.5C 1487.96,1938.37 1484.29,1941.37 1481.5,1945.5C 1394.9,2018.48 1300.9,2080.48 1199.5,2131.5C 1195.57,2132.13 1192.24,2133.8 1189.5,2136.5C 1177.02,2141.91 1164.68,2147.58 1152.5,2153.5C 1151.17,2129.51 1150.5,2105.18 1150.5,2080.5C 1150.38,2040.82 1151.04,2001.15 1152.5,1961.5C 1154.26,1960.96 1155.59,1959.96 1156.5,1958.5C 1168.05,1950.71 1180.38,1943.88 1193.5,1938C 1199.96,1932.93 1206.96,1928.6 1214.5,1925C 1221.87,1919.31 1229.53,1913.98 1237.5,1909C 1208.84,1908.5 1180.17,1908.33 1151.5,1908.5C 1151.5,1925.83 1151.5,1943.17 1151.5,1960.5C 1149.75,1990.65 1149.09,2020.98 1149.5,2051.5C 1148.26,2052.41 1146.93,2052.58 1145.5,2052C 1058.6,2013.07 976.929,1965.74 900.5,1910C 891.601,1908.72 882.601,1908.06 873.5,1908C 864.363,1894.85 855.196,1881.69 846,1868.5C 810.126,1839.63 775.793,1808.96 743,1776.5C 742.5,1820.5 742.333,1864.5 742.5,1908.5C 706.167,1908.5 669.833,1908.5 633.5,1908.5C 633.334,1899.83 633.5,1891.16 634,1882.5C 638.509,1864.13 643.176,1845.8 648,1827.5C 648.833,1776.16 648.667,1724.83 647.5,1673.5C 623.945,1645.38 601.112,1616.71 579,1587.5C 561.642,1563.13 544.642,1538.46 528,1513.5C 523.644,1505.67 519.144,1498 514.5,1490.5C 520.664,1457.66 538.664,1433.66 568.5,1418.5 Z"/></g>
<g><path style="opacity:1" fill="#463a39" d="M 568.5,1418.5 C 569.209,1417.6 570.209,1417.26 571.5,1417.5C 571.5,1423.17 571.5,1428.83 571.5,1434.5C 571.144,1428.92 570.144,1423.59 568.5,1418.5 Z"/></g>
<g><path style="opacity:1" fill="#000000" d="M 1823.5,1525.5 C 1807.59,1553.66 1790.92,1581.33 1773.5,1608.5C 1751.78,1563.73 1728.95,1519.4 1705,1475.5C 1700.39,1466.96 1696.39,1458.29 1693,1449.5C 1700.17,1458 1708,1465.83 1716.5,1473C 1747.5,1500.17 1783.17,1517.67 1823.5,1525.5 Z"/></g>
<g><path style="opacity:1" fill="#be9a2f" d="M 1112.5,1827.5 C 1111.6,1828.21 1111.26,1829.21 1111.5,1830.5C 1151.67,1830.83 1191.67,1830.5 1231.5,1829.5C 1241.32,1808.02 1251.32,1786.69 1261.5,1765.5C 1272.28,1807.63 1282.28,1849.96 1291.5,1892.5C 1278.54,1894.48 1265.21,1895.15 1251.5,1894.5C 1178.5,1894.5 1105.5,1894.5 1032.5,1894.5C 1020.12,1895.15 1008.12,1894.48 996.5,1892.5C 1001.02,1871.44 1005.85,1850.44 1011,1829.5C 1061.49,1732.19 1111.65,1634.85 1161.5,1537.5C 1160.97,1536.81 1160.31,1536.31 1159.5,1536C 1153.67,1535.83 1147.83,1535.67 1142,1535.5C 1112.15,1536.32 1082.32,1537.15 1052.5,1538C 1030.63,1517.96 1008.63,1498.13 986.5,1478.5C 996.716,1476.6 1007.05,1475.43 1017.5,1475C 1058.98,1472.97 1100.48,1471.47 1142,1470.5C 1193.57,1471.63 1245.07,1473.97 1296.5,1477.5C 1234.23,1593.63 1172.9,1710.29 1112.5,1827.5 Z"/></g>
<g><path style="opacity:1" fill="#2b0603" d="M 1606.5,1500.5 C 1598.8,1499.75 1591.13,1498.75 1583.5,1497.5C 1580.27,1487.88 1575.61,1479.05 1569.5,1471C 1586.05,1475.37 1598.39,1485.21 1606.5,1500.5 Z"/></g>
<g><path style="opacity:1" fill="#be9a2f" d="M 1308.5,1479.5 C 1309.27,1478.85 1310.27,1478.52 1311.5,1478.5C 1351.31,1482.08 1390.98,1486.58 1430.5,1492C 1489.7,1586.85 1550.87,1680.35 1614,1772.5C 1606.43,1749.14 1598.43,1725.81 1590,1702.5C 1589.67,1653.5 1589.33,1604.5 1589,1555.5C 1579.67,1547.3 1570.83,1538.8 1562.5,1530C 1552.86,1521.7 1543.19,1513.36 1533.5,1505C 1543.47,1505.66 1553.47,1506.33 1563.5,1507C 1595.81,1511.41 1628.14,1515.58 1660.5,1519.5C 1660.33,1626.17 1660.5,1732.83 1661,1839.5C 1665.52,1858.25 1670.35,1876.92 1675.5,1895.5C 1646.51,1896.67 1617.51,1896.83 1588.5,1896C 1527.37,1810.23 1467.87,1723.39 1410,1635.5C 1417.89,1660.52 1426.23,1685.52 1435,1710.5C 1435.5,1772.17 1435.67,1833.83 1435.5,1895.5C 1406.83,1895.5 1378.17,1895.5 1349.5,1895.5C 1354.01,1874.12 1358.84,1852.79 1364,1831.5C 1364.83,1731.5 1364.67,1631.5 1363.5,1531.5C 1345.45,1513.78 1327.12,1496.45 1308.5,1479.5 Z"/></g>
<g><path style="opacity:1" fill="#be9a2f" d="M 946.5,1480.5 C 949.833,1480.5 953.167,1480.5 956.5,1480.5C 956.333,1598.17 956.5,1715.83 957,1833.5C 962.027,1854.14 966.86,1874.8 971.5,1895.5C 942.492,1895.83 913.492,1895.5 884.5,1894.5C 826.853,1810.74 767.353,1728.74 706,1648.5C 714.272,1671.3 722.606,1694.3 731,1717.5C 731.5,1776.83 731.667,1836.17 731.5,1895.5C 702.85,1896.44 674.183,1896.77 645.5,1896.5C 649.857,1876.74 654.69,1857.07 660,1837.5C 660.833,1744.5 660.667,1651.5 659.5,1558.5C 650.33,1553.08 641.664,1546.91 633.5,1540C 623.666,1534.25 613.999,1528.25 604.5,1522C 641.771,1516.84 679.104,1511.84 716.5,1507C 719.882,1506.18 723.216,1506.34 726.5,1507.5C 790.511,1589.96 851.678,1674.96 910,1762.5C 902.824,1738.3 894.824,1714.3 886,1690.5C 885.833,1638.5 885.333,1586.5 884.5,1534.5C 866.129,1520.99 847.795,1507.49 829.5,1494C 868.616,1489.23 907.616,1484.73 946.5,1480.5 Z"/></g>
<g><path style="opacity:1" fill="#614639" d="M 1352.5,1637.5 C 1343.06,1622.02 1336.22,1605.35 1332,1587.5C 1330.42,1589.91 1329.42,1592.58 1329,1595.5C 1328.83,1599.33 1328.67,1603.17 1328.5,1607C 1329.84,1623.03 1331.51,1639.03 1333.5,1655C 1333.47,1663 1332.31,1670.83 1330,1678.5C 1329.59,1678.96 1329.09,1679.29 1328.5,1679.5C 1315.52,1643.03 1293.86,1612.87 1263.5,1589C 1261.54,1587.55 1260.2,1585.72 1259.5,1583.5C 1273.77,1554.95 1289.11,1526.95 1305.5,1499.5C 1321.15,1513.98 1336.65,1528.65 1352,1543.5C 1352.5,1574.83 1352.67,1606.16 1352.5,1637.5 Z"/></g>
<g><path style="opacity:1" fill="#7d7373" d="M 1868.5,1522.5 C 1867.05,1523.3 1865.38,1523.8 1863.5,1524C 1851.33,1524.83 1839.33,1524.66 1827.5,1523.5C 1841.19,1523.72 1854.86,1523.39 1868.5,1522.5 Z"/></g>
<g><path style="opacity:1" fill="#61463a" d="M 1010.5,1525.5 C 1019.51,1532.18 1027.84,1539.52 1035.5,1547.5C 1032.6,1571.77 1031.77,1596.11 1033,1620.5C 1019.54,1590.01 1012.04,1558.35 1010.5,1525.5 Z"/></g>
<g><path style="opacity:1" fill="#bbbbba" d="M 831.5,1531.5 C 832.461,1533.26 832.795,1535.26 832.5,1537.5C 830.235,1569.85 836.902,1600.18 852.5,1628.5C 835.743,1611.08 819.409,1593.42 803.5,1575.5C 810.323,1559.18 819.656,1544.51 831.5,1531.5 Z"/></g>
<g><path style="opacity:1" fill="#6c605f" d="M 831.5,1531.5 C 831.56,1530.96 831.893,1530.62 832.5,1530.5C 833.797,1532.97 833.797,1535.31 832.5,1537.5C 832.795,1535.26 832.461,1533.26 831.5,1531.5 Z"/></g>
<g><path style="opacity:1" fill="#2b0602" d="M 1548.5,1645.5 C 1534.19,1623.57 1519.86,1601.57 1505.5,1579.5C 1508.31,1563.97 1511.15,1548.3 1514,1532.5C 1527.02,1569.73 1538.52,1607.39 1548.5,1645.5 Z"/></g>
<g><path style="opacity:1" fill="#898989" d="M 521.5,1533.5 C 520.596,1534.21 520.263,1535.21 520.5,1536.5C 510.985,1536.83 501.652,1536.49 492.5,1535.5C 501.5,1535.5 510.5,1535.5 519.5,1535.5C 519.281,1534.32 519.614,1533.32 520.5,1532.5C 521.107,1532.62 521.44,1532.96 521.5,1533.5 Z"/></g>
<g><path style="opacity:1" fill="#2a0502" d="M 1111.5,1596.5 C 1111.66,1592.42 1111.16,1588.42 1110,1584.5C 1106.59,1572.79 1103.09,1561.12 1099.5,1549.5C 1111.54,1549.2 1123.54,1549.2 1135.5,1549.5C 1128.25,1565.62 1120.25,1581.29 1111.5,1596.5 Z"/></g>
<g><path style="opacity:1" fill="#614639" d="M 1099.5,1549.5 C 1103.09,1561.12 1106.59,1572.79 1110,1584.5C 1111.16,1588.42 1111.66,1592.42 1111.5,1596.5C 1104.44,1611.62 1097.11,1626.62 1089.5,1641.5C 1082.33,1621.48 1074.83,1601.48 1067,1581.5C 1063.32,1571.29 1060.15,1560.96 1057.5,1550.5C 1071.51,1550.57 1085.51,1550.23 1099.5,1549.5 Z"/></g>
<g><path style="opacity:1" fill="#2b0502" d="M 1259.5,1583.5 C 1260.2,1585.72 1261.54,1587.55 1263.5,1589C 1293.86,1612.87 1315.52,1643.03 1328.5,1679.5C 1329.09,1679.29 1329.59,1678.96 1330,1678.5C 1332.31,1670.83 1333.47,1663 1333.5,1655C 1331.51,1639.03 1329.84,1623.03 1328.5,1607C 1328.67,1603.17 1328.83,1599.33 1329,1595.5C 1329.42,1592.58 1330.42,1589.91 1332,1587.5C 1336.22,1605.35 1343.06,1622.02 1352.5,1637.5C 1352.5,1686.17 1352.5,1734.83 1352.5,1783.5C 1321.47,1758.64 1292.81,1731.14 1266.5,1701C 1265.52,1700.41 1264.85,1700.74 1264.5,1702C 1279.42,1750.35 1301.92,1794.85 1332,1835.5C 1332.82,1836.82 1333.98,1837.49 1335.5,1837.5C 1338.11,1842.55 1341.11,1847.38 1344.5,1852C 1342.42,1861.17 1340.42,1870.33 1338.5,1879.5C 1327.22,1874.53 1316.55,1868.53 1306.5,1861.5C 1304.21,1859.35 1301.54,1857.68 1298.5,1856.5C 1289.92,1822.07 1281.92,1787.4 1274.5,1752.5C 1265.68,1752.4 1257.02,1752.4 1248.5,1752.5C 1235.81,1719.73 1227.81,1685.73 1224.5,1650.5C 1227.81,1643.67 1230.98,1636.67 1234,1629.5C 1236.82,1625.6 1239.49,1621.6 1242,1617.5C 1246.98,1605.74 1252.81,1594.4 1259.5,1583.5 Z"/></g>
<g><path style="opacity:1" fill="#bebdbd" d="M 967.5,1606.5 C 972.739,1618.31 978.573,1629.98 985,1641.5C 996.918,1660.33 1008.58,1679.33 1020,1698.5C 1027.11,1712.35 1032.95,1726.69 1037.5,1741.5C 1033.13,1752.6 1027.79,1763.27 1021.5,1773.5C 1020.64,1774.58 1019.64,1774.75 1018.5,1774C 1001.18,1761.86 984.509,1749.03 968.5,1735.5C 967.503,1728.87 967.17,1722.2 967.5,1715.5C 973.553,1717.51 979.553,1719.51 985.5,1721.5C 980.295,1702.22 974.295,1683.22 967.5,1664.5C 967.5,1645.17 967.5,1625.83 967.5,1606.5 Z"/></g>
<g><path style="opacity:1" fill="#61463a" d="M 1224.5,1650.5 C 1227.81,1685.73 1235.81,1719.73 1248.5,1752.5C 1247.35,1756.79 1245.69,1760.79 1243.5,1764.5C 1225.13,1738.4 1213.79,1709.4 1209.5,1677.5C 1214.14,1668.22 1219.14,1659.22 1224.5,1650.5 Z"/></g>
<g><path style="opacity:1" fill="#2b0805" d="M 967.5,1664.5 C 974.295,1683.22 980.295,1702.22 985.5,1721.5C 979.553,1719.51 973.553,1717.51 967.5,1715.5C 967.5,1698.5 967.5,1681.5 967.5,1664.5 Z"/></g>
<g><path style="opacity:1" fill="#2b0502" d="M 1209.5,1677.5 C 1213.79,1709.4 1225.13,1738.4 1243.5,1764.5C 1237.82,1776.53 1232.15,1788.53 1226.5,1800.5C 1208.36,1782.03 1191.69,1762.37 1176.5,1741.5C 1187.54,1720.08 1198.54,1698.75 1209.5,1677.5 Z"/></g>
<g><path style="opacity:1" fill="#bebebd" d="M 1352.5,1783.5 C 1352.67,1795.84 1352.5,1808.17 1352,1820.5C 1351.67,1821.5 1351.33,1822.5 1351,1823.5C 1345.61,1828.06 1340.45,1832.73 1335.5,1837.5C 1333.98,1837.49 1332.82,1836.82 1332,1835.5C 1301.92,1794.85 1279.42,1750.35 1264.5,1702C 1264.85,1700.74 1265.52,1700.41 1266.5,1701C 1292.81,1731.14 1321.47,1758.64 1352.5,1783.5 Z"/></g>
<g><path style="opacity:1" fill="#2b0502" d="M 1566.5,1894.5 C 1558.94,1892.36 1551.27,1890.36 1543.5,1888.5C 1510.13,1878.49 1478.13,1865.15 1447.5,1848.5C 1446.17,1806.5 1446.17,1764.5 1447.5,1722.5C 1461.32,1742.48 1474.82,1762.81 1488,1783.5C 1513.72,1820.92 1539.89,1857.92 1566.5,1894.5 Z"/></g>
<g><path style="opacity:1" fill="#2c0f0e" d="M 742.5,1727.5 C 743.496,1727.41 744.329,1727.75 745,1728.5C 748.517,1734.1 752.517,1739.43 757,1744.5C 757.667,1745.17 757.667,1745.83 757,1746.5C 752.333,1742.5 747.667,1738.5 743,1734.5C 742.503,1732.19 742.337,1729.86 742.5,1727.5 Z"/></g>
<g><path style="opacity:1" fill="#bebebe" d="M 1176.5,1741.5 C 1191.69,1762.37 1208.36,1782.03 1226.5,1800.5C 1224.59,1806.59 1221.92,1812.26 1218.5,1817.5C 1191.88,1816.51 1165.21,1816.18 1138.5,1816.5C 1139.99,1811.79 1141.83,1807.12 1144,1802.5C 1154.89,1782.04 1165.73,1761.71 1176.5,1741.5 Z"/></g>
<g><path style="opacity:1" fill="#000000" d="M 1697.5,1858.5 C 1697.17,1858.5 1696.83,1858.5 1696.5,1858.5C 1692.98,1843.1 1689.15,1827.77 1685,1812.5C 1684.33,1810.5 1684.33,1808.5 1685,1806.5C 1690.43,1823.54 1694.59,1840.87 1697.5,1858.5 Z"/></g>
<g><path style="opacity:1" fill="#7d651d" d="M 1112.5,1827.5 C 1114.05,1828.79 1116.05,1829.46 1118.5,1829.5C 1156.16,1829.12 1193.82,1829.12 1231.5,1829.5C 1191.67,1830.5 1151.67,1830.83 1111.5,1830.5C 1111.26,1829.21 1111.6,1828.21 1112.5,1827.5 Z"/></g>
<g><path style="opacity:1" fill="#a19e9e" d="M 1298.5,1856.5 C 1301.54,1857.68 1304.21,1859.35 1306.5,1861.5C 1304.24,1861.96 1302.24,1862.96 1300.5,1864.5C 1299.21,1861.99 1298.54,1859.32 1298.5,1856.5 Z"/></g>
<g><path style="opacity:1" fill="#888888" d="M 1696.5,1858.5 C 1696.83,1858.5 1697.17,1858.5 1697.5,1858.5C 1698.12,1858.61 1698.62,1858.94 1699,1859.5C 1699.72,1863.15 1700.22,1866.81 1700.5,1870.5C 1699.5,1887.33 1699.17,1904.33 1699.5,1921.5C 1686.5,1921.5 1673.5,1921.5 1660.5,1921.5C 1672.99,1920.5 1685.66,1920.17 1698.5,1920.5C 1698.67,1902.5 1698.5,1884.5 1698,1866.5C 1697.18,1863.88 1696.68,1861.22 1696.5,1858.5 Z"/></g>
<g><path style="opacity:1" fill="#5e4c16" d="M 996.5,1892.5 C 1008.12,1894.48 1020.12,1895.15 1032.5,1894.5C 1020.34,1895.5 1008.01,1895.83 995.5,1895.5C 995.263,1894.21 995.596,1893.21 996.5,1892.5 Z"/></g>
<g><path style="opacity:1" fill="#5f4c16" d="M 1291.5,1892.5 C 1292.4,1893.21 1292.74,1894.21 1292.5,1895.5C 1278.66,1895.83 1264.99,1895.5 1251.5,1894.5C 1265.21,1895.15 1278.54,1894.48 1291.5,1892.5 Z"/></g>
<g><path style="opacity:1" fill="#bebebe" d="M 1156.5,1958.5 C 1154.72,1958.89 1153.05,1959.56 1151.5,1960.5C 1151.5,1943.17 1151.5,1925.83 1151.5,1908.5C 1180.17,1908.33 1208.84,1908.5 1237.5,1909C 1229.53,1913.98 1221.87,1919.31 1214.5,1925C 1206.96,1928.6 1199.96,1932.93 1193.5,1938C 1180.38,1943.88 1168.05,1950.71 1156.5,1958.5 Z"/></g>
<g><path style="opacity:1" fill="#8c8c8c" d="M 756.5,1814.5 C 755.502,1850 755.168,1885.66 755.5,1921.5C 710.5,1921.5 665.5,1921.5 620.5,1921.5C 620.17,1903.66 620.503,1885.99 621.5,1868.5C 621.5,1885.83 621.5,1903.17 621.5,1920.5C 665.833,1920.5 710.167,1920.5 754.5,1920.5C 754.167,1884.83 754.5,1849.16 755.5,1813.5C 756.107,1813.62 756.44,1813.96 756.5,1814.5 Z"/></g>
<g><path style="opacity:1" fill="#8c8c8c" d="M 1562.5,1919.5 C 1583.63,1920.14 1604.63,1920.81 1625.5,1921.5C 1604.83,1921.67 1584.16,1921.5 1563.5,1921C 1562.94,1920.62 1562.61,1920.12 1562.5,1919.5 Z"/></g>
<g><path style="opacity:1" fill="#7a7a7a" d="M 1492.5,1936.5 C 1489.13,1939.87 1485.46,1942.87 1481.5,1945.5C 1484.29,1941.37 1487.96,1938.37 1492.5,1936.5 Z"/></g>
<g><path style="opacity:1" fill="#8c8c8c" d="M 1136.5,2065.5 C 1137.5,2099 1137.83,2132.66 1137.5,2166.5C 1146.83,2166.5 1156.17,2166.5 1165.5,2166.5C 1156.01,2167.49 1146.35,2167.83 1136.5,2167.5C 1136.5,2133.5 1136.5,2099.5 1136.5,2065.5 Z"/></g>
<g><path style="opacity:1" fill="#5c5c5c" d="M 1156.5,1958.5 C 1155.59,1959.96 1154.26,1960.96 1152.5,1961.5C 1151.04,2001.15 1150.38,2040.82 1150.5,2080.5C 1150.5,2105.18 1151.17,2129.51 1152.5,2153.5C 1151.79,2154.4 1150.79,2154.74 1149.5,2154.5C 1149.5,2120.17 1149.5,2085.83 1149.5,2051.5C 1149.09,2020.98 1149.75,1990.65 1151.5,1960.5C 1153.05,1959.56 1154.72,1958.89 1156.5,1958.5 Z"/></g>
<g><path style="opacity:1" fill="#797979" d="M 1199.5,2131.5 C 1196.76,2134.2 1193.43,2135.87 1189.5,2136.5C 1192.24,2133.8 1195.57,2132.13 1199.5,2131.5 Z"/></g>
</svg>
