<?xml version="1.0" encoding="UTF-8"?>
<!DOCTYPE svg PUBLIC "-//W3C//DTD SVG 1.1//EN" "http://www.w3.org/Graphics/SVG/1.1/DTD/svg11.dtd">
<svg xmlns="http://www.w3.org/2000/svg" version="1.1" width="1700px" height="500px" style="shape-rendering:geometricPrecision; text-rendering:geometricPrecision; image-rendering:optimizeQuality; fill-rule:evenodd; clip-rule:evenodd" xmlns:xlink="http://www.w3.org/1999/xlink">
<g><path style="opacity:0.958" fill="#fefffe" d="M 1086.5,89.5 C 1089.5,89.5 1092.5,89.5 1095.5,89.5C 1095.5,97.8333 1095.5,106.167 1095.5,114.5C 1089.35,114.324 1084.52,116.657 1081,121.5C 1079.63,126.437 1080.8,130.604 1084.5,134C 1087.94,135.699 1091.44,137.199 1095,138.5C 1095.83,148.184 1095.67,157.851 1094.5,167.5C 1082.06,165.082 1070.73,160.249 1060.5,153C 1049.96,138.655 1048.79,123.488 1057,107.5C 1064.47,97.51 1074.3,91.51 1086.5,89.5 Z"/></g>
<g><path style="opacity:0.937" fill="#fefffe" d="M 1102.5,89.5 C 1118.08,90.4129 1131.75,95.9129 1143.5,106C 1138.38,113.079 1133.38,120.246 1128.5,127.5C 1120.83,121.386 1112.17,117.386 1102.5,115.5C 1102.5,106.833 1102.5,98.1667 1102.5,89.5 Z"/></g>
<g><path style="opacity:0.964" fill="#fefffe" d="M 501.5,90.5 C 504.833,90.5 508.167,90.5 511.5,90.5C 511.667,105.504 511.5,120.504 511,135.5C 507.443,144.947 503.61,154.281 499.5,163.5C 503.445,164.491 507.445,164.824 511.5,164.5C 511.5,172.833 511.5,181.167 511.5,189.5C 503.833,189.5 496.167,189.5 488.5,189.5C 485.536,198.932 481.869,208.098 477.5,217C 467.816,217.832 458.149,217.665 448.5,216.5C 466.737,174.698 484.404,132.698 501.5,90.5 Z"/></g>
<g><path style="opacity:0.965" fill="#fefffe" d="M 518.5,90.5 C 522.226,90.1774 525.893,90.5108 529.5,91.5C 546.972,133.248 564.638,174.915 582.5,216.5C 572.5,217.833 562.5,217.833 552.5,216.5C 548.833,207.833 545.167,199.167 541.5,190.5C 533.862,189.503 526.196,189.169 518.5,189.5C 518.5,181.167 518.5,172.833 518.5,164.5C 522.846,164.666 527.179,164.499 531.5,164C 526.948,154.347 522.781,144.514 519,134.5C 518.5,119.837 518.333,105.17 518.5,90.5 Z"/></g>
<g><path style="opacity:0.995" fill="#fefffe" d="M 317.5,91.5 C 325.833,91.5 334.167,91.5 342.5,91.5C 342.5,133.5 342.5,175.5 342.5,217.5C 334.167,217.5 325.833,217.5 317.5,217.5C 317.5,175.5 317.5,133.5 317.5,91.5 Z"/></g>
<g><path style="opacity:0.961" fill="#fefffe" d="M 406.5,91.5 C 414.5,91.5 422.5,91.5 430.5,91.5C 430.5,133.5 430.5,175.5 430.5,217.5C 422.5,217.5 414.5,217.5 406.5,217.5C 406.5,175.5 406.5,133.5 406.5,91.5 Z"/></g>
<g><path style="opacity:0.974" fill="#fefffe" d="M 646.5,91.5 C 656.167,91.5 665.833,91.5 675.5,91.5C 675.955,123.536 675.455,155.536 674,187.5C 671.015,202.653 662.181,212.653 647.5,217.5C 646.5,175.505 646.167,133.505 646.5,91.5 Z"/></g>
<g><path style="opacity:0.996" fill="#fefffe" d="M 703.5,91.5 C 712.5,91.5 721.5,91.5 730.5,91.5C 730.5,133.5 730.5,175.5 730.5,217.5C 721.5,217.5 712.5,217.5 703.5,217.5C 703.5,175.5 703.5,133.5 703.5,91.5 Z"/></g>
<g><path style="opacity:0.996" fill="#fefffe" d="M 814.5,91.5 C 823.5,91.5 832.5,91.5 841.5,91.5C 841.5,133.5 841.5,175.5 841.5,217.5C 832.5,217.5 823.5,217.5 814.5,217.5C 814.5,175.5 814.5,133.5 814.5,91.5 Z"/></g>
<g><path style="opacity:0.972" fill="#fefffe" d="M 848.5,91.5 C 869.167,91.5 889.833,91.5 910.5,91.5C 910.5,99.8333 910.5,108.167 910.5,116.5C 889.833,116.5 869.167,116.5 848.5,116.5C 848.5,108.167 848.5,99.8333 848.5,91.5 Z"/></g>
<g><path style="opacity:0.996" fill="#fefffe" d="M 935.5,91.5 C 944.5,91.5 953.5,91.5 962.5,91.5C 962.5,133.5 962.5,175.5 962.5,217.5C 953.5,217.5 944.5,217.5 935.5,217.5C 935.5,175.5 935.5,133.5 935.5,91.5 Z"/></g>
<g><path style="opacity:0.958" fill="#fefffe" d="M 969.5,91.5 C 979.172,91.3335 988.839,91.5002 998.5,92C 1022.34,96.5028 1034.67,110.836 1035.5,135C 1034.71,159.896 1022.05,174.563 997.5,179C 988.212,180.276 978.879,180.776 969.5,180.5C 969.5,171.833 969.5,163.167 969.5,154.5C 976.508,154.666 983.508,154.5 990.5,154C 1005.33,149.508 1009.83,140.008 1004,125.5C 1001.74,122.567 998.902,120.4 995.5,119C 986.916,117.59 978.25,117.09 969.5,117.5C 969.5,108.833 969.5,100.167 969.5,91.5 Z"/></g>
<g><path style="opacity:0.956" fill="#fefffe" d="M 1171.5,91.5 C 1181.17,91.5 1190.83,91.5 1200.5,91.5C 1200.5,133.5 1200.5,175.5 1200.5,217.5C 1190.83,217.5 1181.17,217.5 1171.5,217.5C 1171.5,175.5 1171.5,133.5 1171.5,91.5 Z"/></g>
<g><path style="opacity:0.963" fill="#fefffe" d="M 1282.5,91.5 C 1300.17,91.5 1317.83,91.5 1335.5,91.5C 1335.5,99.8333 1335.5,108.167 1335.5,116.5C 1317.83,116.5 1300.17,116.5 1282.5,116.5C 1282.5,108.167 1282.5,99.8333 1282.5,91.5 Z"/></g>
<g><path style="opacity:0.965" fill="#fefffe" d="M 1342.5,91.5 C 1357.17,91.5 1371.83,91.5 1386.5,91.5C 1386.67,98.8409 1386.5,106.174 1386,113.5C 1363.15,139.387 1340.65,165.554 1318.5,192C 1324.16,192.499 1329.82,192.666 1335.5,192.5C 1335.5,200.833 1335.5,209.167 1335.5,217.5C 1317.17,217.5 1298.83,217.5 1280.5,217.5C 1280.33,210.159 1280.5,202.826 1281,195.5C 1303.13,169.039 1325.63,142.872 1348.5,117C 1346.53,116.505 1344.53,116.338 1342.5,116.5C 1342.5,108.167 1342.5,99.8333 1342.5,91.5 Z"/></g>
<g><path style="opacity:0.953" fill="#fefffe" d="M 349.5,99.5 C 366.222,120.584 382.722,141.917 399,163.5C 399.667,178.833 399.667,194.167 399,209.5C 383.05,187.882 366.717,166.549 350,145.5C 349.5,130.17 349.333,114.837 349.5,99.5 Z"/></g>
<g><path style="opacity:0.959" fill="#fefffe" d="M 1102.5,140.5 C 1116,142.583 1128,147.917 1138.5,156.5C 1149.51,171.162 1150.35,186.496 1141,202.5C 1130.95,214.247 1118.12,219.914 1102.5,219.5C 1102.5,211.167 1102.5,202.833 1102.5,194.5C 1108.06,194.15 1112.89,192.15 1117,188.5C 1119.7,182.733 1118.53,177.9 1113.5,174C 1110.06,172.301 1106.56,170.801 1103,169.5C 1102.5,159.839 1102.33,150.172 1102.5,140.5 Z"/></g>
<g><path style="opacity:0.969" fill="#fefffe" d="M 848.5,141.5 C 866.5,141.5 884.5,141.5 902.5,141.5C 902.5,149.833 902.5,158.167 902.5,166.5C 884.5,166.5 866.5,166.5 848.5,166.5C 848.5,158.167 848.5,149.833 848.5,141.5 Z"/></g>
<g><path style="opacity:0.942" fill="#fefffe" d="M 1062.5,179.5 C 1068.34,183.144 1074.34,186.644 1080.5,190C 1085.3,192.103 1090.3,193.269 1095.5,193.5C 1095.5,202.167 1095.5,210.833 1095.5,219.5C 1076.75,218.619 1060.41,211.953 1046.5,199.5C 1051.48,192.526 1056.81,185.859 1062.5,179.5 Z"/></g>
<g><path style="opacity:0.944" fill="#fefffe" d="M 605.5,180.5 C 610.447,185.26 616.114,189.094 622.5,192C 627.982,193.81 633.316,193.31 638.5,190.5C 639.498,200.144 639.832,209.81 639.5,219.5C 619.536,221.903 602.703,215.903 589,201.5C 588.333,200.833 588.333,200.167 589,199.5C 594.709,193.295 600.209,186.961 605.5,180.5 Z"/></g>
<g><path style="opacity:0.962" fill="#fefffe" d="M 737.5,191.5 C 756.5,191.5 775.5,191.5 794.5,191.5C 794.5,200.167 794.5,208.833 794.5,217.5C 775.5,217.5 756.5,217.5 737.5,217.5C 737.5,208.833 737.5,200.167 737.5,191.5 Z"/></g>
<g><path style="opacity:0.971" fill="#fefffe" d="M 848.5,192.5 C 869.5,192.5 890.5,192.5 911.5,192.5C 911.5,200.833 911.5,209.167 911.5,217.5C 890.5,217.5 869.5,217.5 848.5,217.5C 848.5,209.167 848.5,200.833 848.5,192.5 Z"/></g>
<g><path style="opacity:0.955" fill="#fefffe" d="M 1342.5,192.5 C 1357.17,192.5 1371.83,192.5 1386.5,192.5C 1386.5,200.833 1386.5,209.167 1386.5,217.5C 1371.83,217.5 1357.17,217.5 1342.5,217.5C 1342.5,209.167 1342.5,200.833 1342.5,192.5 Z"/></g>
<g><path style="opacity:0.944" fill="#fefffe" d="M 591.5,288.5 C 611.002,288.054 628.002,294.22 642.5,307C 635.978,313.887 629.812,321.054 624,328.5C 614.889,319.961 604.056,315.628 591.5,315.5C 591.5,306.5 591.5,297.5 591.5,288.5 Z"/></g>
<g><path style="opacity:0.943" fill="#fefffe" d="M 1376.5,288.5 C 1392.48,289.162 1406.82,294.328 1419.5,304C 1421.23,305.389 1422.56,307.056 1423.5,309C 1418.04,316.292 1412.04,323.125 1405.5,329.5C 1397.27,321.887 1387.61,317.22 1376.5,315.5C 1376.5,306.5 1376.5,297.5 1376.5,288.5 Z"/></g>
<g><path style="opacity:0.958" fill="#fefffe" d="M 579.5,289.5 C 581.167,289.5 582.833,289.5 584.5,289.5C 584.5,298.5 584.5,307.5 584.5,316.5C 565.905,322.122 556.239,334.788 555.5,354.5C 555.752,368.505 561.418,379.671 572.5,388C 576.219,390.364 580.219,391.864 584.5,392.5C 584.5,401.5 584.5,410.5 584.5,419.5C 547.307,414.137 527.641,392.637 525.5,355C 527.328,319.685 545.328,297.851 579.5,289.5 Z"/></g>
<g><path style="opacity:0.958" fill="#fefffe" d="M 721.5,289.5 C 724.5,289.5 727.5,289.5 730.5,289.5C 730.5,298.167 730.5,306.833 730.5,315.5C 709.228,319.651 697.894,332.651 696.5,354.5C 697.875,376.207 709.208,389.207 730.5,393.5C 730.5,402.167 730.5,410.833 730.5,419.5C 694.673,416.84 673.507,397.84 667,362.5C 665.644,323.382 683.81,299.048 721.5,289.5 Z"/></g>
<g><path style="opacity:0.959" fill="#fefffe" d="M 737.5,289.5 C 766.974,290.816 787.141,305.149 798,332.5C 807.665,369.887 795.498,397.387 761.5,415C 753.786,418.096 745.786,419.596 737.5,419.5C 737.5,410.833 737.5,402.167 737.5,393.5C 751.738,391.755 761.905,384.422 768,371.5C 775.497,351.002 770.663,334.169 753.5,321C 748.531,318.066 743.198,316.233 737.5,315.5C 737.5,306.833 737.5,298.167 737.5,289.5 Z"/></g>
<g><path style="opacity:0.958" fill="#fefffe" d="M 986.5,289.5 C 989.5,289.5 992.5,289.5 995.5,289.5C 995.5,297.833 995.5,306.167 995.5,314.5C 989.354,314.324 984.521,316.657 981,321.5C 979.631,326.437 980.797,330.604 984.5,334C 987.935,335.699 991.435,337.199 995,338.5C 995.832,348.184 995.665,357.851 994.5,367.5C 982.063,365.082 970.729,360.249 960.5,353C 949.961,338.655 948.794,323.488 957,307.5C 964.471,297.51 974.304,291.51 986.5,289.5 Z"/></g>
<g><path style="opacity:0.937" fill="#fefffe" d="M 1002.5,289.5 C 1018.08,290.413 1031.75,295.913 1043.5,306C 1038.38,313.079 1033.38,320.246 1028.5,327.5C 1020.83,321.386 1012.17,317.386 1002.5,315.5C 1002.5,306.833 1002.5,298.167 1002.5,289.5 Z"/></g>
<g><path style="opacity:0.959" fill="#fefffe" d="M 1360.5,289.5 C 1363.83,289.5 1367.17,289.5 1370.5,289.5C 1370.5,298.167 1370.5,306.833 1370.5,315.5C 1349.46,319.857 1338.46,332.857 1337.5,354.5C 1338.47,376.156 1349.47,389.156 1370.5,393.5C 1370.83,402.525 1370.5,411.525 1369.5,420.5C 1334.23,416.733 1313.73,397.399 1308,362.5C 1305.69,334.953 1315.86,313.453 1338.5,298C 1345.6,294.249 1352.94,291.416 1360.5,289.5 Z"/></g>
<g><path style="opacity:0.964" fill="#fefffe" d="M 329.5,290.5 C 332.833,290.5 336.167,290.5 339.5,290.5C 339.667,305.504 339.5,320.504 339,335.5C 335.443,344.947 331.61,354.281 327.5,363.5C 331.445,364.491 335.445,364.824 339.5,364.5C 339.5,372.833 339.5,381.167 339.5,389.5C 331.833,389.5 324.167,389.5 316.5,389.5C 313.536,398.932 309.869,408.098 305.5,417C 295.816,417.832 286.149,417.665 276.5,416.5C 294.737,374.698 312.404,332.698 329.5,290.5 Z"/></g>
<g><path style="opacity:0.965" fill="#fefffe" d="M 346.5,290.5 C 350.226,290.177 353.893,290.511 357.5,291.5C 374.972,333.248 392.638,374.915 410.5,416.5C 400.5,417.833 390.5,417.833 380.5,416.5C 376.833,407.833 373.167,399.167 369.5,390.5C 361.862,389.503 354.196,389.169 346.5,389.5C 346.5,381.167 346.5,372.833 346.5,364.5C 350.846,364.666 355.179,364.499 359.5,364C 354.948,354.347 350.781,344.514 347,334.5C 346.5,319.837 346.333,305.17 346.5,290.5 Z"/></g>
<g><path style="opacity:0.995" fill="#fefffe" d="M 145.5,291.5 C 154.5,291.5 163.5,291.5 172.5,291.5C 172.5,333.5 172.5,375.5 172.5,417.5C 163.5,417.5 154.5,417.5 145.5,417.5C 145.5,375.5 145.5,333.5 145.5,291.5 Z"/></g>
<g><path style="opacity:0.961" fill="#fefffe" d="M 234.5,291.5 C 242.5,291.5 250.5,291.5 258.5,291.5C 258.5,333.5 258.5,375.5 258.5,417.5C 250.5,417.5 242.5,417.5 234.5,417.5C 234.5,375.5 234.5,333.5 234.5,291.5 Z"/></g>
<g><path style="opacity:0.974" fill="#fefffe" d="M 474.5,291.5 C 484.167,291.5 493.833,291.5 503.5,291.5C 503.955,323.536 503.455,355.536 502,387.5C 499.015,402.653 490.181,412.653 475.5,417.5C 474.5,375.505 474.167,333.505 474.5,291.5 Z"/></g>
<g><path style="opacity:0.996" fill="#fefffe" d="M 825.5,291.5 C 834.5,291.5 843.5,291.5 852.5,291.5C 852.5,333.5 852.5,375.5 852.5,417.5C 843.5,417.5 834.5,417.5 825.5,417.5C 825.5,375.5 825.5,333.5 825.5,291.5 Z"/></g>
<g><path style="opacity:0.961" fill="#fefffe" d="M 859.5,291.5 C 873.218,291.094 886.885,291.594 900.5,293C 922.954,299.808 933.121,314.975 931,338.5C 928.932,355.23 920.099,366.73 904.5,373C 914.623,387.413 924.623,401.913 934.5,416.5C 923.515,417.666 912.515,417.832 901.5,417C 892.5,404 883.5,391 874.5,378C 869.511,377.501 864.511,377.334 859.5,377.5C 859.5,369.167 859.5,360.833 859.5,352.5C 867.84,352.666 876.173,352.5 884.5,352C 900.686,348.758 905.52,339.591 899,324.5C 897.062,321.894 894.562,320.061 891.5,319C 880.912,317.571 870.245,317.071 859.5,317.5C 859.5,308.833 859.5,300.167 859.5,291.5 Z"/></g>
<g><path style="opacity:0.963" fill="#fefffe" d="M 1066.5,291.5 C 1084.17,291.5 1101.83,291.5 1119.5,291.5C 1119.5,299.833 1119.5,308.167 1119.5,316.5C 1101.83,316.5 1084.17,316.5 1066.5,316.5C 1066.5,308.167 1066.5,299.833 1066.5,291.5 Z"/></g>
<g><path style="opacity:0.965" fill="#fefffe" d="M 1126.5,291.5 C 1141.17,291.5 1155.83,291.5 1170.5,291.5C 1170.67,298.841 1170.5,306.174 1170,313.5C 1147.15,339.387 1124.65,365.554 1102.5,392C 1108.16,392.499 1113.82,392.666 1119.5,392.5C 1119.5,400.833 1119.5,409.167 1119.5,417.5C 1101.17,417.5 1082.83,417.5 1064.5,417.5C 1064.33,410.159 1064.5,402.826 1065,395.5C 1087.13,369.039 1109.63,342.872 1132.5,317C 1130.53,316.505 1128.53,316.338 1126.5,316.5C 1126.5,308.167 1126.5,299.833 1126.5,291.5 Z"/></g>
<g><path style="opacity:0.956" fill="#fefffe" d="M 1182.5,291.5 C 1193.85,291.168 1205.19,291.501 1216.5,292.5C 1224.47,306.297 1232.63,319.964 1241,333.5C 1241.5,361.498 1241.67,389.498 1241.5,417.5C 1237.83,417.5 1234.17,417.5 1230.5,417.5C 1230.67,400.83 1230.5,384.163 1230,367.5C 1213.89,342.279 1198.06,316.945 1182.5,291.5 Z"/></g>
<g><path style="opacity:0.952" fill="#fefffe" d="M 1274.5,291.5 C 1285.52,291.168 1296.52,291.501 1307.5,292.5C 1291.86,317.301 1276.03,341.968 1260,366.5C 1259.5,383.497 1259.33,400.497 1259.5,417.5C 1255.83,417.5 1252.17,417.5 1248.5,417.5C 1248.33,389.831 1248.5,362.165 1249,334.5C 1257.52,320.111 1266.02,305.778 1274.5,291.5 Z"/></g>
<g><path style="opacity:0.996" fill="#fefffe" d="M 1446.5,291.5 C 1455.5,291.5 1464.5,291.5 1473.5,291.5C 1473.5,333.5 1473.5,375.5 1473.5,417.5C 1464.5,417.5 1455.5,417.5 1446.5,417.5C 1446.5,375.5 1446.5,333.5 1446.5,291.5 Z"/></g>
<g><path style="opacity:0.988" fill="#fefffe" d="M 1525.5,291.5 C 1534.83,291.5 1544.17,291.5 1553.5,291.5C 1553.5,333.5 1553.5,375.5 1553.5,417.5C 1544.17,417.5 1534.83,417.5 1525.5,417.5C 1525.5,375.5 1525.5,333.5 1525.5,291.5 Z"/></g>
<g><path style="opacity:0.954" fill="#fefffe" d="M 179.5,302.5 C 195.47,322.647 211.303,342.981 227,363.5C 227.667,378.833 227.667,394.167 227,409.5C 211.333,388.833 195.667,368.167 180,347.5C 179.5,332.504 179.333,317.504 179.5,302.5 Z"/></g>
<g><path style="opacity:0.959" fill="#fefffe" d="M 1002.5,340.5 C 1016,342.583 1028,347.917 1038.5,356.5C 1049.51,371.162 1050.35,386.496 1041,402.5C 1030.95,414.247 1018.12,419.914 1002.5,419.5C 1002.5,411.167 1002.5,402.833 1002.5,394.5C 1008.06,394.15 1012.89,392.15 1017,388.5C 1019.7,382.733 1018.53,377.9 1013.5,374C 1010.06,372.301 1006.56,370.801 1003,369.5C 1002.5,359.839 1002.33,350.172 1002.5,340.5 Z"/></g>
<g><path style="opacity:0.947" fill="#fefffe" d="M 1479.5,340.5 C 1492.83,340.5 1506.17,340.5 1519.5,340.5C 1519.5,349.5 1519.5,358.5 1519.5,367.5C 1506.17,367.5 1492.83,367.5 1479.5,367.5C 1479.5,358.5 1479.5,349.5 1479.5,340.5 Z"/></g>
<g><path style="opacity:0.959" fill="#fefffe" d="M 591.5,344.5 C 609.833,344.5 628.167,344.5 646.5,344.5C 646.667,363.17 646.5,381.836 646,400.5C 630.274,413.578 612.107,420.245 591.5,420.5C 591.5,411.5 591.5,402.5 591.5,393.5C 601.246,394.388 610.079,392.054 618,386.5C 618.499,380.843 618.666,375.176 618.5,369.5C 609.5,369.5 600.5,369.5 591.5,369.5C 591.5,361.167 591.5,352.833 591.5,344.5 Z"/></g>
<g><path style="opacity:0.939" fill="#fefffe" d="M 1406.5,378.5 C 1412.46,383.964 1418.3,389.63 1424,395.5C 1424.67,396.5 1424.67,397.5 1424,398.5C 1411.34,412.558 1395.5,419.558 1376.5,419.5C 1376.5,410.833 1376.5,402.167 1376.5,393.5C 1388.44,392.196 1398.44,387.196 1406.5,378.5 Z"/></g>
<g><path style="opacity:0.942" fill="#fefffe" d="M 962.5,379.5 C 968.336,383.144 974.336,386.644 980.5,390C 985.302,392.103 990.302,393.269 995.5,393.5C 995.5,402.167 995.5,410.833 995.5,419.5C 976.747,418.619 960.414,411.953 946.5,399.5C 951.477,392.526 956.81,385.859 962.5,379.5 Z"/></g>
<g><path style="opacity:0.944" fill="#fefffe" d="M 433.5,380.5 C 438.447,385.26 444.114,389.094 450.5,392C 455.982,393.81 461.316,393.31 466.5,390.5C 467.498,400.144 467.832,409.81 467.5,419.5C 447.536,421.903 430.703,415.903 417,401.5C 416.333,400.833 416.333,400.167 417,399.5C 422.709,393.295 428.209,386.961 433.5,380.5 Z"/></g>
<g><path style="opacity:0.955" fill="#fefffe" d="M 1126.5,392.5 C 1141.17,392.5 1155.83,392.5 1170.5,392.5C 1170.5,400.833 1170.5,409.167 1170.5,417.5C 1155.83,417.5 1141.17,417.5 1126.5,417.5C 1126.5,409.167 1126.5,400.833 1126.5,392.5 Z"/></g>
</svg>
