<?xml version="1.0" encoding="UTF-8" standalone="no"?>
<!-- Uploaded to: SVG Repo, www.svgrepo.com, Generator: SVG Repo Mixer Tools -->

<svg
   width="32px"
   height="32px"
   viewBox="0 0 24 24"
   version="1.1"
   id="svg5408"
   sodipodi:docname="team.svg"
   inkscape:version="1.2 (dc2aedaf03, 2022-05-15)"
   xmlns:inkscape="http://www.inkscape.org/namespaces/inkscape"
   xmlns:sodipodi="http://sodipodi.sourceforge.net/DTD/sodipodi-0.dtd"
   xmlns="http://www.w3.org/2000/svg"
   xmlns:svg="http://www.w3.org/2000/svg">
  <defs
     id="defs5412" />
  <sodipodi:namedview
     id="namedview5410"
     pagecolor="#505050"
     bordercolor="#ffffff"
     borderopacity="1"
     inkscape:showpageshadow="0"
     inkscape:pageopacity="0"
     inkscape:pagecheckerboard="1"
     inkscape:deskcolor="#505050"
     showgrid="false"
     inkscape:zoom="26.15625"
     inkscape:cx="15.980884"
     inkscape:cy="16.019116"
     inkscape:window-width="1920"
     inkscape:window-height="1017"
     inkscape:window-x="-8"
     inkscape:window-y="-8"
     inkscape:window-maximized="1"
     inkscape:current-layer="g5406" />
  <g
     id="g5406">
    <path
       fill="#e89e18"
       d="M0 0h24v24H0z"
       id="path5402" />
    <path
       fill-rule="nonzero"
       d="M12 11a5 5 0 0 1 5 5v6h-2v-6a3 3 0 0 0-2.824-2.995L12 13a3 3 0 0 0-2.995 2.824L9 16v6H7v-6a5 5 0 0 1 5-5zm-6.5 3c.279 0 .55.033.81.094a5.947 5.947 0 0 0-.301 1.575L6 16v.086a1.492 1.492 0 0 0-.356-.08L5.5 16a1.5 1.5 0 0 0-1.493 1.356L4 17.5V22H2v-4.5A3.5 3.5 0 0 1 5.5 14zm13 0a3.5 3.5 0 0 1 3.5 3.5V22h-2v-4.5a1.5 1.5 0 0 0-1.356-1.493L18.5 16c-.175 0-.343.03-.5.085V16c0-.666-.108-1.306-.309-1.904.259-.063.53-.096.809-.096zm-13-6a2.5 2.5 0 1 1 0 5 2.5 2.5 0 0 1 0-5zm13 0a2.5 2.5 0 1 1 0 5 2.5 2.5 0 0 1 0-5zm-13 2a.5.5 0 1 0 0 1 .5.5 0 0 0 0-1zm13 0a.5.5 0 1 0 0 1 .5.5 0 0 0 0-1zM12 2a4 4 0 1 1 0 8 4 4 0 0 1 0-8zm0 2a2 2 0 1 0 0 4 2 2 0 0 0 0-4z"
       id="path5404"
       style="fill:#ffffff" />
  </g>
</svg>
